<svg width="20" height="20" viewBox="0 0 20 20" fill="none" xmlns="http://www.w3.org/2000/svg">
<rect width="20" height="20" rx="10" fill="#D9D9D9"/>
<path d="M16.364 9.99999C16.364 10.1406 16.3081 10.2755 16.2087 10.375C16.1092 10.4744 15.9743 10.5303 15.8337 10.5303H10.5307V15.8333C10.5307 15.974 10.4748 16.1089 10.3753 16.2083C10.2759 16.3078 10.141 16.3636 10.0004 16.3636C9.85971 16.3636 9.72483 16.3078 9.62537 16.2083C9.52592 16.1089 9.47005 15.974 9.47005 15.8333V10.5303H4.16702C4.02638 10.5303 3.89149 10.4744 3.79204 10.375C3.69259 10.2755 3.63672 10.1406 3.63672 9.99999C3.63672 9.85934 3.69259 9.72446 3.79204 9.62501C3.89149 9.52556 4.02638 9.46969 4.16702 9.46969H9.47005V4.16666C9.47005 4.02601 9.52592 3.89113 9.62537 3.79167C9.72483 3.69222 9.85971 3.63635 10.0004 3.63635C10.141 3.63635 10.2759 3.69222 10.3753 3.79167C10.4748 3.89113 10.5307 4.02601 10.5307 4.16666V9.46969H15.8337C15.9743 9.46969 16.1092 9.52556 16.2087 9.62501C16.3081 9.72446 16.364 9.85934 16.364 9.99999Z" fill="#FAFAFA"/>
</svg>
