<svg width="20" height="20" viewBox="0 0 20 20" fill="none" xmlns="http://www.w3.org/2000/svg">
<rect width="20" height="20" rx="10" fill="#00CC99"/>
<path d="M8.59399 13.9844C8.40759 13.9836 8.22887 13.91 8.09595 13.7793L4.8147 10.498C4.68261 10.366 4.6084 10.1868 4.6084 10C4.6084 9.81319 4.68261 9.63404 4.8147 9.50195C4.94679 9.36986 5.12594 9.29565 5.31274 9.29565C5.49955 9.29565 5.6787 9.36986 5.81079 9.50195L8.59399 12.2852L14.6584 6.2207C14.7239 6.1553 14.8015 6.10342 14.887 6.06802C14.9724 6.03262 15.064 6.0144 15.1565 6.0144C15.249 6.0144 15.3406 6.03262 15.426 6.06802C15.5115 6.10342 15.5891 6.1553 15.6545 6.2207C15.7199 6.28611 15.7718 6.36375 15.8072 6.44921C15.8426 6.53466 15.8608 6.62625 15.8608 6.71875C15.8608 6.81124 15.8426 6.90284 15.8072 6.98829C15.7718 7.07375 15.7199 7.15139 15.6545 7.2168L9.09204 13.7793C8.95911 13.91 8.7804 13.9836 8.59399 13.9844Z" fill="#FAFAFA"/>
</svg>
