<svg width="22" height="22" viewBox="0 0 22 22" fill="none" xmlns="http://www.w3.org/2000/svg">
    <path d="M13.0625 10.3125H11.6875V4.8125H12.375C13.1036 4.81477 13.8018 5.10523 14.317 5.62046C14.8323 6.13569 15.1227 6.83385 15.125 7.5625C15.125 7.74484 15.1974 7.9197 15.3264 8.04864C15.4553 8.17757 15.6302 8.25 15.8125 8.25C15.9948 8.25 16.1697 8.17757 16.2986 8.04864C16.4276 7.9197 16.5 7.74484 16.5 7.5625C16.5 6.46848 16.0654 5.41927 15.2918 4.64568C14.5182 3.8721 13.469 3.4375 12.375 3.4375H11.6875V2.0625C11.6875 1.88016 11.6151 1.7053 11.4861 1.57636C11.3572 1.44743 11.1823 1.375 11 1.375C10.8177 1.375 10.6428 1.44743 10.5139 1.57636C10.3849 1.7053 10.3125 1.88016 10.3125 2.0625V3.4375H9.28125C8.18723 3.4375 7.13802 3.8721 6.36443 4.64568C5.59085 5.41927 5.15625 6.46848 5.15625 7.5625C5.15625 8.65652 5.59085 9.70573 6.36443 10.4793C7.13802 11.2529 8.18723 11.6875 9.28125 11.6875H10.3125V17.1875H8.9375C8.20885 17.1852 7.51069 16.8948 6.99546 16.3795C6.48023 15.8643 6.18977 15.1661 6.1875 14.4375C6.1875 14.2552 6.11507 14.0803 5.98614 13.9514C5.8572 13.8224 5.68234 13.75 5.5 13.75C5.31766 13.75 5.1428 13.8224 5.01386 13.9514C4.88493 14.0803 4.8125 14.2552 4.8125 14.4375C4.8125 15.5315 5.2471 16.5807 6.02068 17.3543C6.79427 18.1279 7.84348 18.5625 8.9375 18.5625H10.3125V19.9375C10.3125 20.1198 10.3849 20.2947 10.5139 20.4236C10.6428 20.5526 10.8177 20.625 11 20.625C11.1823 20.625 11.3572 20.5526 11.4861 20.4236C11.6151 20.2947 11.6875 20.1198 11.6875 19.9375V18.5625H13.0625C14.1565 18.5625 15.2057 18.1279 15.9793 17.3543C16.7529 16.5807 17.1875 15.5315 17.1875 14.4375C17.1875 13.3435 16.7529 12.2943 15.9793 11.5207C15.2057 10.7471 14.1565 10.3125 13.0625 10.3125ZM9.28125 10.3125C8.5519 10.3125 7.85243 10.0228 7.33671 9.50704C6.82098 8.99132 6.53125 8.29185 6.53125 7.5625C6.53125 6.83315 6.82098 6.13368 7.33671 5.61796C7.85243 5.10223 8.5519 4.8125 9.28125 4.8125H10.3125V10.3125H9.28125ZM13.0625 17.1875H11.6875V11.6875H13.0625C13.7918 11.6875 14.4913 11.9772 15.007 12.493C15.5228 13.0087 15.8125 13.7082 15.8125 14.4375C15.8125 15.1668 15.5228 15.8663 15.007 16.382C14.4913 16.8978 13.7918 17.1875 13.0625 17.1875Z"
          fill="#A9A9A9"/>
</svg>
