<svg width="64" height="64" viewBox="0 0 64 64" fill="none" xmlns="http://www.w3.org/2000/svg">
    <path d="M55 19.0625H39V12C39 10.8937 38.1063 10 37 10H11.5V7.5C11.5 7.225 11.275 7 11 7H7.5C7.225 7 7 7.225 7 7.5V56.5C7 56.775 7.225 57 7.5 57H11C11.275 57 11.5 56.775 11.5 56.5V40H27V47.0625C27 48.1688 27.8937 49.0625 29 49.0625H55C56.1063 49.0625 57 48.1688 57 47.0625V21.0625C57 19.9563 56.1063 19.0625 55 19.0625ZM11.5 35.5V14.5H34.5V35.5H11.5ZM52.5 44.5625H31.5V40H38.5C38.775 40 39 39.775 39 39.5V23.5625H52.5V44.5625Z"
          fill="#D9D9D9"/>
</svg>
