<svg width="64" height="64" viewBox="0 0 64 64" fill="none" xmlns="http://www.w3.org/2000/svg">
    <path d="M57.6875 17.725C56.8497 15.7852 55.6418 14.0274 54.1312 12.55C52.6196 11.0682 50.8373 9.89058 48.8812 9.08126C46.853 8.23872 44.6776 7.80746 42.4813 7.81251C39.4 7.81251 36.3937 8.65626 33.7812 10.25C33.1562 10.6313 32.5625 11.05 32 11.5063C31.4375 11.05 30.8438 10.6313 30.2188 10.25C27.6063 8.65626 24.6 7.81251 21.5187 7.81251C19.3 7.81251 17.15 8.23751 15.1187 9.08126C13.1562 9.89376 11.3875 11.0625 9.86875 12.55C8.35623 14.0258 7.14799 15.784 6.3125 17.725C5.44375 19.7438 5 21.8875 5 24.0938C5 26.175 5.425 28.3438 6.26875 30.55C6.975 32.3938 7.9875 34.3063 9.28125 36.2375C11.3313 39.2938 14.15 42.4813 17.65 45.7125C23.45 51.0688 29.1938 54.7688 29.4375 54.9188L30.9188 55.8688C31.575 56.2875 32.4188 56.2875 33.075 55.8688L34.5563 54.9188C34.8 54.7625 40.5375 51.0688 46.3438 45.7125C49.8438 42.4813 52.6625 39.2938 54.7125 36.2375C56.0063 34.3063 57.025 32.3938 57.725 30.55C58.5687 28.3438 58.9938 26.175 58.9938 24.0938C59 21.8875 58.5563 19.7438 57.6875 17.725ZM32 50.925C32 50.925 9.75 36.6688 9.75 24.0938C9.75 17.725 15.0187 12.5625 21.5187 12.5625C26.0875 12.5625 30.05 15.1125 32 18.8375C33.95 15.1125 37.9125 12.5625 42.4813 12.5625C48.9813 12.5625 54.25 17.725 54.25 24.0938C54.25 36.6688 32 50.925 32 50.925Z"
          fill="#D9D9D9"/>
</svg>
