<svg width="64" height="64" viewBox="0 0 64 64" fill="none" xmlns="http://www.w3.org/2000/svg">
    <g clip-path="url(#clip0_374_46)">
        <path d="M18.7022 60.4445H13.3689C13.0698 60.4391 12.7769 60.3584 12.5173 60.2097C12.2577 60.061 12.0398 59.8493 11.8838 59.594C11.7278 59.3387 11.6387 59.0482 11.6249 58.7494C11.611 58.4506 11.6728 58.1531 11.8044 57.8845L22.3111 37.3334H10.6667C10.3463 37.336 10.0311 37.2521 9.75453 37.0904C9.47794 36.9287 9.25019 36.6952 9.09537 36.4147C8.94054 36.1342 8.8644 35.8171 8.875 35.4969C8.88559 35.1766 8.98252 34.8652 9.15555 34.5956L28.1422 4.37335C28.2979 4.13043 28.5103 3.92903 28.7612 3.78656C29.0121 3.64408 29.2938 3.56481 29.5822 3.55558H53.4578C53.8128 3.53878 54.1646 3.62877 54.468 3.81391C54.7713 3.99906 55.0122 4.27088 55.1596 4.59428C55.3069 4.91767 55.3539 5.27781 55.2946 5.62821C55.2353 5.9786 55.0723 6.30317 54.8267 6.56002L38.72 24.8889H48.2844C48.6231 24.896 48.9526 24.9998 49.2343 25.1879C49.5159 25.376 49.738 25.6406 49.8743 25.9506C50.0107 26.2607 50.0556 26.6032 50.0039 26.9379C49.9521 27.2727 49.8058 27.5856 49.5822 27.84L20.0178 59.84C19.8532 60.0274 19.651 60.1781 19.4243 60.2822C19.1977 60.3864 18.9516 60.4416 18.7022 60.4445ZM16.32 56.8889H17.9378L44.1955 28.4445H34.8267C34.4717 28.4613 34.1198 28.3713 33.8165 28.1861C33.5131 28.001 33.2722 27.7292 33.1249 27.4058C32.9775 27.0824 32.9305 26.7222 32.9898 26.3718C33.0492 26.0214 33.2122 25.6969 33.4578 25.44L49.5644 7.11113H30.56L13.8133 33.7778H25.2444C25.5435 33.7832 25.8365 33.8639 26.0961 34.0126C26.3556 34.1612 26.5735 34.373 26.7295 34.6283C26.8855 34.8835 26.9746 35.174 26.9884 35.4729C27.0023 35.7717 26.9406 36.0692 26.8089 36.3378L16.32 56.8889Z"
              fill="#D9D9D9"/>
    </g>
    <defs>
        <clipPath id="clip0_374_46">
            <rect width="64" height="64" fill="white"/>
        </clipPath>
    </defs>
</svg>
