<svg width="22" height="22" viewBox="0 0 22 22" fill="none" xmlns="http://www.w3.org/2000/svg">
    <path d="M17.1963 19.25H12.951C13.6663 18.6112 14.3408 17.9281 14.9705 17.2047C17.3252 14.4977 18.5713 11.6359 18.5713 8.9375C18.5713 6.9318 17.7745 5.00825 16.3563 3.59001C14.938 2.17176 13.0145 1.375 11.0088 1.375C9.00309 1.375 7.07954 2.17176 5.66129 3.59001C4.24305 5.00825 3.44629 6.9318 3.44629 8.9375C3.44629 11.6359 4.69238 14.4977 7.05566 17.2047C7.6831 17.9302 8.35774 18.6134 9.0752 19.25H4.82129C4.63895 19.25 4.46408 19.3224 4.33515 19.4514C4.20622 19.5803 4.13379 19.7552 4.13379 19.9375C4.13379 20.1198 4.20622 20.2947 4.33515 20.4236C4.46408 20.5526 4.63895 20.625 4.82129 20.625H17.1963C17.3786 20.625 17.5535 20.5526 17.6824 20.4236C17.8114 20.2947 17.8838 20.1198 17.8838 19.9375C17.8838 19.7552 17.8114 19.5803 17.6824 19.4514C17.5535 19.3224 17.3786 19.25 17.1963 19.25ZM4.82129 8.9375C4.82129 7.29647 5.47318 5.72266 6.63357 4.56228C7.79395 3.4019 9.36776 2.75 11.0088 2.75C12.6498 2.75 14.2236 3.4019 15.384 4.56228C16.5444 5.72266 17.1963 7.29647 17.1963 8.9375C17.1963 13.8531 12.4268 17.9609 11.0088 19.0781C9.59082 17.9609 4.82129 13.8531 4.82129 8.9375ZM14.4463 8.9375C14.4463 8.25763 14.2447 7.59302 13.867 7.02773C13.4892 6.46243 12.9524 6.02184 12.3243 5.76166C11.6961 5.50149 11.005 5.43341 10.3382 5.56605C9.67136 5.69869 9.05885 6.02608 8.57811 6.50682C8.09737 6.98756 7.76998 7.60007 7.63734 8.26688C7.5047 8.93369 7.57278 9.62485 7.83295 10.253C8.09313 10.8811 8.53372 11.418 9.09902 11.7957C9.66431 12.1734 10.3289 12.375 11.0088 12.375C11.9205 12.375 12.7948 12.0128 13.4395 11.3682C14.0841 10.7235 14.4463 9.84918 14.4463 8.9375ZM8.94629 8.9375C8.94629 8.52958 9.06725 8.13081 9.29388 7.79164C9.52051 7.45246 9.84263 7.1881 10.2195 7.032C10.5964 6.87589 11.0111 6.83505 11.4112 6.91463C11.8112 6.99421 12.1788 7.19065 12.4672 7.47909C12.7556 7.76754 12.9521 8.13504 13.0317 8.53513C13.1112 8.93521 13.0704 9.34991 12.9143 9.72678C12.7582 10.1037 12.4938 10.4258 12.1547 10.6524C11.8155 10.879 11.4167 11 11.0088 11C10.4625 10.9977 9.93919 10.7797 9.55288 10.3934C9.16658 10.0071 8.94855 9.48381 8.94629 8.9375Z"
          fill="#A9A9A9"/>
</svg>
