<svg width="18" height="18" viewBox="0 0 18 18" fill="none" xmlns="http://www.w3.org/2000/svg">
    <path d="M0 1.6875C0 1.23995 0.17779 0.810725 0.494257 0.494257C0.810725 0.17779 1.23995 0 1.6875 0L16.3125 0C16.7601 0 17.1893 0.17779 17.5057 0.494257C17.8222 0.810725 18 1.23995 18 1.6875V3.9375C18 4.38505 17.8222 4.81428 17.5057 5.13074C17.1893 5.44721 16.7601 5.625 16.3125 5.625H1.6875C1.23995 5.625 0.810725 5.44721 0.494257 5.13074C0.17779 4.81428 0 4.38505 0 3.9375L0 1.6875ZM1.6875 1.125C1.53832 1.125 1.39524 1.18426 1.28975 1.28975C1.18426 1.39524 1.125 1.53832 1.125 1.6875V3.9375C1.125 4.08668 1.18426 4.22976 1.28975 4.33525C1.39524 4.44074 1.53832 4.5 1.6875 4.5H16.3125C16.4617 4.5 16.6048 4.44074 16.7102 4.33525C16.8157 4.22976 16.875 4.08668 16.875 3.9375V1.6875C16.875 1.53832 16.8157 1.39524 16.7102 1.28975C16.6048 1.18426 16.4617 1.125 16.3125 1.125H1.6875Z"
          fill="#A9A9A9"/>
    <path d="M2.25 2.8125C2.25 2.66332 2.30926 2.52024 2.41475 2.41475C2.52024 2.30926 2.66332 2.25 2.8125 2.25H6.1875C6.33668 2.25 6.47976 2.30926 6.58525 2.41475C6.69074 2.52024 6.75 2.66332 6.75 2.8125C6.75 2.96168 6.69074 3.10476 6.58525 3.21025C6.47976 3.31574 6.33668 3.375 6.1875 3.375H2.8125C2.66332 3.375 2.52024 3.31574 2.41475 3.21025C2.30926 3.10476 2.25 2.96168 2.25 2.8125ZM14.4259 3.17588L13.9804 2.73038C13.9409 2.69104 13.9141 2.64088 13.9032 2.58626C13.8923 2.53163 13.8979 2.47501 13.9192 2.42355C13.9405 2.3721 13.9766 2.32814 14.023 2.29724C14.0693 2.26634 14.1238 2.2499 14.1795 2.25H15.0705C15.1262 2.2499 15.1807 2.26634 15.227 2.29724C15.2734 2.32814 15.3095 2.3721 15.3308 2.42355C15.3521 2.47501 15.3577 2.53163 15.3468 2.58626C15.3359 2.64088 15.3091 2.69104 15.2696 2.73038L14.8241 3.17588C14.798 3.20207 14.767 3.22285 14.7328 3.23703C14.6986 3.2512 14.662 3.2585 14.625 3.2585C14.588 3.2585 14.5514 3.2512 14.5172 3.23703C14.483 3.22285 14.452 3.20207 14.4259 3.17588ZM0 9C0 8.40326 0.237053 7.83097 0.65901 7.40901C1.08097 6.98705 1.65326 6.75 2.25 6.75H15.75C16.3467 6.75 16.919 6.98705 17.341 7.40901C17.7629 7.83097 18 8.40326 18 9V14.625C18 15.2217 17.7629 15.794 17.341 16.216C16.919 16.6379 16.3467 16.875 15.75 16.875H2.25C1.65326 16.875 1.08097 16.6379 0.65901 16.216C0.237053 15.794 0 15.2217 0 14.625V9ZM1.125 12.375V14.625C1.125 14.9234 1.24353 15.2095 1.4545 15.4205C1.66548 15.6315 1.95163 15.75 2.25 15.75H15.75C16.0484 15.75 16.3345 15.6315 16.5455 15.4205C16.7565 15.2095 16.875 14.9234 16.875 14.625V12.375H1.125ZM16.875 11.25V9C16.875 8.70163 16.7565 8.41548 16.5455 8.20451C16.3345 7.99353 16.0484 7.875 15.75 7.875H2.25C1.95163 7.875 1.66548 7.99353 1.4545 8.20451C1.24353 8.41548 1.125 8.70163 1.125 9V11.25H16.875ZM2.25 9.5625C2.25 9.41332 2.30926 9.27024 2.41475 9.16475C2.52024 9.05926 2.66332 9 2.8125 9H12.9375C13.0867 9 13.2298 9.05926 13.3352 9.16475C13.4407 9.27024 13.5 9.41332 13.5 9.5625C13.5 9.71168 13.4407 9.85476 13.3352 9.96025C13.2298 10.0657 13.0867 10.125 12.9375 10.125H2.8125C2.66332 10.125 2.52024 10.0657 2.41475 9.96025C2.30926 9.85476 2.25 9.71168 2.25 9.5625ZM2.25 14.0625C2.25 13.9133 2.30926 13.7702 2.41475 13.6648C2.52024 13.5593 2.66332 13.5 2.8125 13.5H9.5625C9.71168 13.5 9.85476 13.5593 9.96025 13.6648C10.0657 13.7702 10.125 13.9133 10.125 14.0625C10.125 14.2117 10.0657 14.3548 9.96025 14.4602C9.85476 14.5657 9.71168 14.625 9.5625 14.625H2.8125C2.66332 14.625 2.52024 14.5657 2.41475 14.4602C2.30926 14.3548 2.25 14.2117 2.25 14.0625Z"
          fill="#A9A9A9"/>
</svg>
