<svg width="64" height="64" viewBox="0 0 64 64" fill="none" xmlns="http://www.w3.org/2000/svg">
    <path d="M51.5127 43.7438C49.9483 42.1781 48.1203 40.9002 46.1127 39.9688C48.9439 37.675 50.7502 34.175 50.7502 30.25C50.7502 23.325 44.9752 17.6438 38.0502 17.75C31.2314 17.8563 25.7377 23.4125 25.7377 30.25C25.7377 34.175 27.5502 37.675 30.3752 39.9688C28.3671 40.8996 26.539 42.1775 24.9752 43.7438C21.5627 47.1625 19.6252 51.675 19.5002 56.4875C19.4985 56.5542 19.5102 56.6206 19.5346 56.6827C19.5589 56.7448 19.5955 56.8014 19.6421 56.8492C19.6887 56.8969 19.7444 56.9349 19.8059 56.9608C19.8674 56.9867 19.9334 57 20.0002 57H23.5002C23.7689 57 23.9939 56.7875 24.0002 56.5187C24.1189 52.8937 25.5877 49.5 28.1689 46.925C29.4898 45.5971 31.0609 44.5444 32.7914 43.8277C34.5218 43.1111 36.3772 42.7448 38.2502 42.75C42.0564 42.75 45.6377 44.2313 48.3314 46.925C50.9064 49.5 52.3752 52.8937 52.5002 56.5187C52.5064 56.7875 52.7314 57 53.0002 57H56.5002C56.5669 57 56.6329 56.9867 56.6944 56.9608C56.7559 56.9349 56.8116 56.8969 56.8582 56.8492C56.9048 56.8014 56.9414 56.7448 56.9657 56.6827C56.9901 56.6206 57.0018 56.5542 57.0002 56.4875C56.8752 51.675 54.9377 47.1625 51.5127 43.7438ZM38.2502 38.25C36.1127 38.25 34.1002 37.4188 32.5939 35.9063C31.838 35.1563 31.2409 34.2617 30.8382 33.276C30.4355 32.2902 30.2355 31.2335 30.2502 30.1688C30.2689 28.1188 31.0877 26.1375 32.5189 24.6688C34.0189 23.1313 36.0252 22.275 38.1689 22.25C40.2877 22.2313 42.3439 23.0563 43.8564 24.5375C45.4064 26.0563 46.2564 28.0875 46.2564 30.25C46.2564 32.3875 45.4252 34.3938 43.9127 35.9063C43.1706 36.6518 42.2881 37.2429 41.3161 37.6452C40.3442 38.0475 39.3021 38.2531 38.2502 38.25ZM22.5939 31.9C22.5377 31.3563 22.5064 30.8063 22.5064 30.25C22.5064 29.2563 22.6002 28.2875 22.7752 27.3438C22.8189 27.1188 22.7002 26.8875 22.4939 26.7938C21.6439 26.4125 20.8627 25.8875 20.1877 25.225C19.3923 24.4538 18.7664 23.5253 18.3499 22.4986C17.9335 21.472 17.7356 20.3699 17.7689 19.2625C17.8252 17.2563 18.6314 15.35 20.0377 13.9125C21.5814 12.3313 23.6564 11.4688 25.8627 11.4938C27.8564 11.5125 29.7814 12.2813 31.2377 13.6438C31.7314 14.1063 32.1564 14.6188 32.5127 15.1688C32.6377 15.3625 32.8814 15.4438 33.0939 15.3688C34.1939 14.9875 35.3564 14.7188 36.5502 14.5938C36.9002 14.5563 37.1002 14.1813 36.9439 13.8688C34.9127 9.85 30.7627 7.075 25.9627 7C19.0314 6.89375 13.2564 12.575 13.2564 19.4938C13.2564 23.4188 15.0627 26.9188 17.8939 29.2125C15.9064 30.1313 14.0752 31.4 12.4877 32.9875C9.06266 36.4063 7.12516 40.9188 7.00016 45.7375C6.99849 45.8042 7.01019 45.8706 7.03457 45.9327C7.05895 45.9948 7.09551 46.0514 7.14211 46.0992C7.18871 46.1469 7.24439 46.1849 7.30588 46.2108C7.36737 46.2367 7.43343 46.25 7.50016 46.25H11.0064C11.2752 46.25 11.5002 46.0375 11.5064 45.7687C11.6252 42.1437 13.0939 38.75 15.6752 36.175C17.5127 34.3375 19.7627 33.0625 22.2189 32.4438C22.4627 32.3813 22.6252 32.15 22.5939 31.9Z"
          fill="#D9D9D9"/>
</svg>
