<svg width="21" height="21" viewBox="0 0 21 21" fill="none" xmlns="http://www.w3.org/2000/svg">
<path d="M18.375 10.5C18.375 10.674 18.3059 10.841 18.1828 10.964C18.0597 11.0871 17.8928 11.1562 17.7188 11.1562H11.1562V17.7188C11.1562 17.8928 11.0871 18.0597 10.964 18.1828C10.841 18.3059 10.674 18.375 10.5 18.375C10.326 18.375 10.159 18.3059 10.036 18.1828C9.91289 18.0597 9.84375 17.8928 9.84375 17.7188V11.1562H3.28125C3.1072 11.1562 2.94028 11.0871 2.81721 10.964C2.69414 10.841 2.625 10.674 2.625 10.5C2.625 10.326 2.69414 10.159 2.81721 10.036C2.94028 9.91289 3.1072 9.84375 3.28125 9.84375H9.84375V3.28125C9.84375 3.1072 9.91289 2.94028 10.036 2.81721C10.159 2.69414 10.326 2.625 10.5 2.625C10.674 2.625 10.841 2.69414 10.964 2.81721C11.0871 2.94028 11.1562 3.1072 11.1562 3.28125V9.84375H17.7188C17.8928 9.84375 18.0597 9.91289 18.1828 10.036C18.3059 10.159 18.375 10.326 18.375 10.5Z" fill="#A9A9A9"/>
</svg>
