<svg width="48" height="48" viewBox="0 0 48 48" fill="none" xmlns="http://www.w3.org/2000/svg">
<path d="M13 40C9.96 40 7.36667 38.9533 5.22 36.86C3.07333 34.7533 2 32.1867 2 29.16C2 26.56 2.78 24.24 4.34 22.2C5.91333 20.16 7.96667 18.86 10.5 18.3C11.34 15.2333 13.0067 12.7533 15.5 10.86C18.0067 8.95333 20.84 8 24 8C27.9067 8 31.2133 9.36 33.92 12.08C36.64 14.7867 38 18.0933 38 22C40.3067 22.2667 42.2133 23.2667 43.72 25C45.24 26.7067 46 28.7067 46 31C46 33.5067 45.1267 35.6333 43.38 37.38C41.6333 39.1267 39.5067 40 37 40H26C24.9067 40 23.9667 39.6067 23.18 38.82C22.3933 38.0467 22 37.1067 22 36V25.7L18.8 28.8L16 26L24 18L32 26L29.2 28.8L26 25.7V36H37C38.4 36 39.58 35.5133 40.54 34.54C41.5133 33.58 42 32.4 42 31C42 29.6 41.5133 28.42 40.54 27.46C39.58 26.4867 38.4 26 37 26H34V22C34 19.24 33.0267 16.88 31.08 14.92C29.1333 12.9733 26.7733 12 24 12C21.24 12 18.88 12.9733 16.92 14.92C14.9733 16.88 14 19.24 14 22H13C11.0667 22 9.42 22.6867 8.06 24.06C6.68667 25.42 6 27.0667 6 29C6 30.9333 6.68667 32.6 8.06 34C9.42 35.3333 11.0667 36 13 36H18V40" fill="#D9D9D9"/>
</svg>
