<svg width="25" height="25" viewBox="0 0 25 25" fill="none" xmlns="http://www.w3.org/2000/svg">
<g clip-path="url(#clip0_1104_74)">
<path d="M18.75 2.57812C16.9141 1.44531 14.8047 0.78125 12.5 0.78125V2.57812H18.75Z" fill="#ED4C5C"/>
<path d="M12.5 4.375H20.9375C20.2734 3.71094 19.5312 3.08594 18.75 2.57812H12.5V4.375Z" fill="white"/>
<path d="M12.5 6.17188H22.3828C21.9531 5.50781 21.4844 4.92188 20.9766 4.375H12.5V6.17188Z" fill="#ED4C5C"/>
<path d="M12.5 7.96875H23.3203C23.0469 7.34375 22.7344 6.71875 22.3828 6.17188H12.5V7.96875Z" fill="white"/>
<path d="M12.5 9.76563H23.9063C23.75 9.14063 23.5547 8.55469 23.3203 7.96875H12.5V9.76563Z" fill="#ED4C5C"/>
<path d="M12.5 11.6016H24.1797C24.1406 10.9766 24.0234 10.3906 23.9062 9.80469H12.5V11.6016Z" fill="white"/>
<path d="M24.1797 11.6016H12.5V12.5H0.78125C0.78125 12.8125 0.78125 13.0859 0.820312 13.3984H24.1797C24.2188 13.0859 24.2188 12.8125 24.2188 12.5C24.2188 12.1875 24.2188 11.875 24.1797 11.6016Z" fill="#ED4C5C"/>
<path d="M1.09375 15.1953H23.9062C24.0625 14.6094 24.1406 14.0234 24.1797 13.3984H0.820312C0.859375 13.9844 0.9375 14.6094 1.09375 15.1953Z" fill="white"/>
<path d="M1.67969 16.9922H23.3203C23.5547 16.4062 23.75 15.8203 23.9063 15.1953H1.09375C1.25 15.8203 1.44531 16.4062 1.67969 16.9922Z" fill="#ED4C5C"/>
<path d="M2.61719 18.7891H22.3828C22.7344 18.2031 23.0469 17.6172 23.3203 16.9922H1.67969C1.95313 17.6172 2.26562 18.2031 2.61719 18.7891Z" fill="white"/>
<path d="M4.02344 20.5859H20.9766C21.4844 20.0391 21.9922 19.4141 22.3828 18.7891H2.61719C3.00781 19.4531 3.51563 20.0391 4.02344 20.5859Z" fill="#ED4C5C"/>
<path d="M6.21094 22.3828H18.7891C19.6094 21.875 20.3125 21.25 20.9766 20.5859H4.02344C4.6875 21.2891 5.42969 21.875 6.21094 22.3828Z" fill="white"/>
<path d="M12.5 24.2188C14.8047 24.2188 16.9531 23.5547 18.7891 22.3828H6.21094C8.04687 23.5547 10.1953 24.2188 12.5 24.2188Z" fill="#ED4C5C"/>
<path d="M6.25 2.57812C5.42969 3.08594 4.6875 3.71094 4.02344 4.375C3.47656 4.92188 3.00781 5.54688 2.61719 6.17188C2.26562 6.75781 1.91406 7.34375 1.67969 7.96875C1.44531 8.55469 1.25 9.14062 1.09375 9.76562C0.9375 10.3516 0.859375 10.9375 0.820312 11.5625C0.78125 11.875 0.78125 12.1875 0.78125 12.5H12.5V0.78125C10.1953 0.78125 8.08594 1.44531 6.25 2.57812Z" fill="#428BC1"/>
<path d="M9.76563 1.17188L9.96094 1.75781H10.5469L10.0781 2.14844L10.2344 2.73438L9.76563 2.38281L9.29688 2.73438L9.45313 2.14844L8.98438 1.75781H9.57031L9.76563 1.17188ZM11.3281 3.51562L11.5234 4.10156H12.1094L11.6406 4.49219L11.7969 5.07812L11.3281 4.72656L10.8594 5.07812L11.0156 4.49219L10.5469 4.10156H11.1328L11.3281 3.51562ZM8.20313 3.51562L8.39844 4.10156H8.98438L8.51563 4.49219L8.67188 5.07812L8.20313 4.72656L7.73438 5.07812L7.89063 4.49219L7.42188 4.10156H8.00781L8.20313 3.51562ZM9.76563 5.85938L9.96094 6.44531H10.5469L10.0781 6.83594L10.2344 7.42188L9.76563 7.07031L9.29688 7.42188L9.45313 6.83594L8.98438 6.44531H9.57031L9.76563 5.85938ZM6.64063 5.85938L6.83594 6.44531H7.42188L6.95313 6.83594L7.10938 7.42188L6.64063 7.07031L6.17188 7.42188L6.32813 6.83594L5.85938 6.44531H6.44531L6.64063 5.85938ZM3.51563 5.85938L3.71094 6.44531H4.29688L3.82813 6.83594L3.98438 7.42188L3.51563 7.07031L3.04688 7.42188L3.20312 6.83594L2.73438 6.44531H3.32031L3.51563 5.85938ZM11.3281 8.20312L11.5234 8.78906H12.1094L11.6406 9.17969L11.7969 9.76562L11.3281 9.41406L10.8594 9.76562L11.0156 9.17969L10.5469 8.78906H11.1328L11.3281 8.20312ZM8.20313 8.20312L8.39844 8.78906H8.98438L8.51563 9.17969L8.67188 9.76562L8.20313 9.41406L7.73438 9.76562L7.89063 9.17969L7.42188 8.78906H8.00781L8.20313 8.20312ZM5.07813 8.20312L5.27344 8.78906H5.85938L5.39062 9.17969L5.54688 9.76562L5.07813 9.41406L4.60938 9.76562L4.76562 9.17969L4.29688 8.78906H4.88281L5.07813 8.20312ZM9.76563 10.5469L9.96094 11.1328H10.5469L10.0781 11.5234L10.2344 12.1094L9.76563 11.7578L9.29688 12.1094L9.45313 11.5234L8.98438 11.1328H9.57031L9.76563 10.5469ZM6.64063 10.5469L6.83594 11.1328H7.42188L6.95313 11.5234L7.10938 12.1094L6.64063 11.7578L6.17188 12.1094L6.32813 11.5234L5.85938 11.1328H6.44531L6.64063 10.5469ZM3.51563 10.5469L3.71094 11.1328H4.29688L3.82813 11.5234L3.98438 12.1094L3.51563 11.7578L3.04688 12.1094L3.20312 11.5234L2.73438 11.1328H3.32031L3.51563 10.5469ZM4.60938 5.07812L5.07813 4.72656L5.54688 5.07812L5.35156 4.49219L5.82031 4.10156H5.23438L5.07813 3.51562L4.88281 4.10156H4.33594L4.80469 4.45312L4.60938 5.07812ZM1.48437 9.76562L1.95312 9.41406L2.42188 9.76562L2.22656 9.17969L2.69531 8.78906H2.14844L1.95312 8.20312L1.75781 8.78906H1.36719C1.36719 8.82812 1.32812 8.86719 1.32812 8.90625L1.64062 9.14062L1.48437 9.76562Z" fill="white"/>
</g>
<defs>
<clipPath id="clip0_1104_74">
<rect width="25" height="25" fill="white"/>
</clipPath>
</defs>
</svg>
