<svg width="31" height="48" viewBox="0 0 31 48" fill="none" xmlns="http://www.w3.org/2000/svg">
<g clip-path="url(#clip0_1377_340)">
<path d="M26.0495 0C26.3195 0.07125 26.5914 0.133125 26.8576 0.21375C28.7335 0.780937 30.1023 2.49375 30.2467 4.45406C30.2626 4.67156 30.2673 4.89094 30.2673 5.10938C30.2673 17.7028 30.2692 30.2953 30.2673 42.8888C30.2673 45.1584 29.1179 46.9313 27.166 47.6728C26.8051 47.8097 26.4226 47.8913 26.0504 47.9991H4.95573C4.20198 47.6803 3.37791 47.4666 2.71041 47.0194C1.45885 46.1803 0.842914 44.9128 0.750102 43.4044C0.737914 43.2019 0.737914 42.9984 0.737914 42.795C0.737914 32.6081 0.737914 22.4212 0.737914 12.2334C0.737914 12.0459 0.729477 11.8556 0.762289 11.6728C0.828852 11.2931 1.08573 11.1038 1.45791 11.1103C1.8076 11.1169 2.05323 11.3053 2.11604 11.6625C2.15073 11.8603 2.14229 12.0666 2.14229 12.27C2.14323 21.6919 2.14323 31.1128 2.14323 40.5347V41.2256H5.61291C5.61291 40.9912 5.61291 40.7766 5.61291 40.5628C5.61291 30.3759 5.61291 20.1891 5.61291 10.0013C5.61291 8.76562 5.92604 8.45438 7.16916 8.45438C12.7473 8.45438 18.3254 8.45438 23.9026 8.45438C25.0482 8.45438 25.3932 8.79469 25.3932 9.92625C25.3932 16.9725 25.3932 24.0197 25.3932 31.0659C25.3932 31.2525 25.4007 31.4447 25.3614 31.6256C25.2845 31.9753 25.0454 32.1581 24.6882 32.1562C24.3301 32.1544 24.0929 31.9697 24.0198 31.6191C23.9823 31.4381 23.9907 31.2459 23.9907 31.0594C23.9889 27.06 23.9898 23.0597 23.9898 19.0603C23.9898 18.8775 23.9898 18.6947 23.9898 18.4819H7.05104V41.235H23.987V40.6809C23.987 38.8369 23.987 36.9937 23.9879 35.1497C23.9879 34.9781 23.9823 34.8028 24.0132 34.6359C24.0789 34.2797 24.3179 34.0903 24.6704 34.0847C25.0435 34.0781 25.2976 34.2666 25.3679 34.6453C25.3989 34.8122 25.3923 34.9875 25.3923 35.1591C25.3942 36.9872 25.3923 38.8153 25.3932 40.6434V41.2322H28.8385C28.846 41.0691 28.861 40.9031 28.861 40.7381C28.862 28.8478 28.8639 16.9575 28.861 5.06813C28.861 2.83406 27.4257 1.41094 25.1907 1.40813C24.4407 1.40719 23.6907 1.41937 22.9407 1.40156C22.666 1.395 22.5123 1.46812 22.4326 1.7475C22.3304 2.1075 22.1973 2.46 22.0539 2.80594C21.7285 3.59344 21.1248 4.02281 20.2782 4.02656C17.0907 4.03969 13.9032 4.04063 10.7157 4.02656C9.86823 4.02281 9.26823 3.58594 8.94666 2.79656C8.79948 2.43563 8.70104 2.05219 8.5351 1.70062C8.47416 1.57125 8.28198 1.425 8.14604 1.42125C7.22448 1.39875 6.30198 1.38469 5.38135 1.41938C3.59448 1.48594 2.18823 2.95781 2.14979 4.79906C2.12448 5.98594 2.16104 7.17469 2.12823 8.36063C2.12166 8.61 1.99979 8.93156 1.81791 9.08625C1.40729 9.435 0.764164 9.135 0.758539 8.58C0.744477 7.06594 0.675102 5.53969 0.834477 4.04062C1.04729 2.05031 2.68041 0.469687 4.64729 0.0909375C4.75229 0.07125 4.8526 0.0309375 4.95573 0C11.987 0 19.0182 0 26.0495 0ZM28.7898 42.7013H2.18448C2.16854 42.8306 2.14698 42.9356 2.1451 43.0416C2.10385 45.0394 3.6151 46.5891 5.6401 46.5909C12.2167 46.5984 18.7923 46.5947 25.3689 46.5891C25.6632 46.5891 25.9632 46.5553 26.2501 46.4888C27.9423 46.1006 29.1564 44.2969 28.7898 42.7003V42.7013ZM15.4792 17.0456C18.167 17.0456 20.8539 17.04 23.5417 17.0531C23.8895 17.055 23.9973 16.9575 23.9945 16.605C23.9795 14.5116 23.9795 12.4181 23.9945 10.3238C23.9973 9.9525 23.8876 9.85125 23.5173 9.85219C18.1735 9.86344 12.8307 9.86344 7.48698 9.85219C7.11666 9.85219 7.00698 9.9525 7.00979 10.3238C7.02573 12.4012 7.02666 14.4797 7.00979 16.5581C7.00604 16.95 7.12416 17.0559 7.51135 17.0541C10.1673 17.0381 12.8232 17.0456 15.4801 17.0456H15.4792ZM9.95541 1.42594C10.0567 1.71844 10.1007 2.01187 10.2517 2.23312C10.3726 2.40937 10.622 2.60719 10.816 2.60812C13.9389 2.63156 17.0626 2.63063 20.1854 2.61C20.3739 2.60906 20.6242 2.44219 20.732 2.27812C20.8885 2.04094 20.941 1.73531 21.0489 1.42594H9.95448H9.95541Z" fill="url(#paint0_linear_1377_340)" fill-opacity="0.75"/>
<path d="M10.6781 31.7372C10.0434 31.4559 9.49029 31.2487 8.97466 30.9712C8.55841 30.7472 8.46841 30.3225 8.68216 29.9765C8.89404 29.6334 9.28029 29.5669 9.70685 29.7862C9.99279 29.9334 10.2872 30.0647 10.634 30.2297C10.6612 30.0328 10.6894 29.9184 10.6903 29.8031C10.6959 29.3344 10.6547 28.8619 10.7006 28.3987C10.7887 27.524 10.6659 26.8603 9.7256 26.4253C8.95404 26.069 8.73373 25.2515 8.82935 24.4134C8.93623 23.4759 9.40779 22.769 10.29 22.3912C10.5656 22.2731 10.71 22.1597 10.7053 21.8259C10.6978 21.3225 10.9697 21.0694 11.4037 21.074C11.8172 21.0787 12.0515 21.3244 12.0956 21.7987C12.1069 21.9215 12.1153 22.0444 12.1209 22.1203C12.5344 22.32 12.9272 22.4756 13.2834 22.6912C13.7156 22.9537 13.8169 23.3737 13.5862 23.7244C13.3659 24.059 12.9722 24.119 12.5522 23.8828C12.435 23.8172 12.315 23.7572 12.1031 23.6465C12.1031 24.4565 12.0928 25.1812 12.1153 25.905C12.1181 25.995 12.2784 26.1206 12.39 26.159C13.5994 26.5772 14.3137 27.39 14.2997 28.6931C14.2847 30.0309 13.6078 30.9534 12.359 31.4625C12.2428 31.5103 12.1594 31.6884 12.105 31.8244C12.0609 31.934 12.0975 32.0728 12.0769 32.1947C12.0112 32.5744 11.7619 32.7769 11.3944 32.7769C11.0278 32.7769 10.7737 32.5762 10.7119 32.1956C10.6828 32.0137 10.6828 31.8272 10.6762 31.7372H10.6781ZM12.1294 27.5859V30.0225C12.6665 29.6634 12.9169 29.2331 12.9075 28.6678C12.899 28.1756 12.6609 27.824 12.1294 27.5859ZM10.6631 23.8003C10.0631 24.4125 10.0847 25.064 10.6631 25.2956V23.8003Z" fill="url(#paint1_linear_1377_340)" fill-opacity="0.75"/>
<path d="M15.5023 34.9621C17.2498 34.9621 18.9973 34.9621 20.7438 34.9621C20.8845 34.9621 21.026 34.9536 21.1648 34.9705C21.5435 35.0146 21.762 35.2368 21.7863 35.6127C21.8107 35.9886 21.6213 36.2446 21.2538 36.3318C21.0748 36.3739 20.8826 36.3664 20.696 36.3674C17.2329 36.3693 13.7688 36.3693 10.3057 36.3674C10.1501 36.3674 9.99164 36.3768 9.83883 36.3533C9.43383 36.2933 9.17883 35.9924 9.21539 35.6108C9.25289 35.2124 9.48351 34.993 9.8857 34.9668C10.0104 34.9583 10.1351 34.9621 10.2598 34.9621C12.0073 34.9621 13.7548 34.9621 15.5013 34.9621H15.5023Z" fill="url(#paint2_linear_1377_340)" fill-opacity="0.75"/>
<path d="M15.4651 39.105C13.7335 39.105 12.0019 39.105 10.2704 39.105C10.1147 39.105 9.9563 39.1134 9.80349 39.09C9.44912 39.0366 9.2438 38.8172 9.21849 38.4628C9.1913 38.0878 9.37224 37.8319 9.74068 37.7353C9.8738 37.7006 10.0182 37.7006 10.1579 37.7006C13.7147 37.6988 17.2716 37.6988 20.8285 37.7006C20.9682 37.7006 21.1126 37.6969 21.2466 37.7297C21.6132 37.8197 21.8082 38.0662 21.7876 38.4431C21.7679 38.8191 21.5522 39.045 21.1744 39.0928C21.0207 39.1125 20.8632 39.105 20.7066 39.105C18.9591 39.105 17.2116 39.105 15.4651 39.105Z" fill="url(#paint3_linear_1377_340)" fill-opacity="0.75"/>
<path d="M18.7384 25.966C19.3937 25.966 20.0481 25.9585 20.7034 25.9688C21.189 25.9763 21.474 26.2388 21.4806 26.6551C21.4862 27.0704 21.2003 27.362 20.724 27.3666C19.3834 27.3779 18.0418 27.3779 16.7012 27.3666C16.2259 27.3629 15.9409 27.0695 15.9484 26.6523C15.9549 26.237 16.2399 25.9754 16.7274 25.9688C17.3978 25.9595 18.0681 25.966 18.7393 25.966H18.7384Z" fill="url(#paint4_linear_1377_340)" fill-opacity="0.75"/>
<path d="M18.7393 30.1088C18.069 30.1088 17.3987 30.1172 16.7284 30.106C16.2343 30.0985 15.9559 29.8435 15.9484 29.4263C15.9409 29.01 16.2212 28.7166 16.7012 28.711C18.0418 28.6969 19.3825 28.6969 20.7231 28.711C21.205 28.7157 21.4843 29.0063 21.4796 29.4225C21.475 29.8397 21.1946 30.0985 20.7034 30.106C20.049 30.1163 19.3937 30.1088 18.7393 30.1088Z" fill="url(#paint5_linear_1377_340)" fill-opacity="0.75"/>
<path d="M18.7039 24.6244C18.0645 24.6244 17.4261 24.6338 16.7867 24.6216C16.2336 24.6113 15.9354 24.3404 15.9476 23.8951C15.9598 23.4666 16.2429 23.2257 16.782 23.2219C18.0757 23.2144 19.3695 23.2144 20.6623 23.2219C21.1929 23.2257 21.477 23.4816 21.4779 23.9138C21.4779 24.3432 21.192 24.6076 20.6661 24.6197C20.0117 24.6338 19.3573 24.6235 18.702 24.6235L18.7039 24.6244Z" fill="url(#paint6_linear_1377_340)" fill-opacity="0.75"/>
<path d="M15.4909 15.164C13.6187 15.164 11.7465 15.1659 9.87432 15.1612C9.6737 15.1612 9.46463 15.1528 9.27432 15.0975C8.92557 14.9953 8.78588 14.7206 8.82057 14.3728C8.85338 14.0418 9.0437 13.8272 9.3812 13.7775C9.53401 13.755 9.69245 13.7587 9.84807 13.7587C13.6084 13.7587 17.3687 13.7578 21.1281 13.7587C21.8762 13.7587 22.1818 13.9565 22.1903 14.4403C22.1987 14.94 21.8659 15.164 21.1074 15.164C19.2353 15.164 17.3631 15.164 15.4909 15.164Z" fill="url(#paint7_linear_1377_340)" fill-opacity="0.75"/>
<path d="M15.4929 12.6863C14.3238 12.6863 13.1538 12.6863 11.9848 12.6863C11.652 12.6863 11.3632 12.6057 11.2207 12.2654C11.0285 11.8069 11.3098 11.3391 11.8385 11.2979C12.3035 11.2613 12.7732 11.2819 13.241 11.2819C15.0654 11.281 16.8898 11.2819 18.7141 11.2819C18.8698 11.2819 19.0273 11.2763 19.181 11.296C19.602 11.3513 19.8457 11.6232 19.8354 12.0085C19.8251 12.3957 19.5738 12.661 19.1407 12.675C18.4713 12.6957 17.8001 12.6854 17.1298 12.6863C16.5841 12.6872 16.0385 12.6863 15.4929 12.6863Z" fill="url(#paint8_linear_1377_340)" fill-opacity="0.75"/>
</g>
<defs>
<linearGradient id="paint0_linear_1377_340" x1="0.731445" y1="0" x2="30.6911" y2="0.265478" gradientUnits="userSpaceOnUse">
<stop stop-color="#6600FF"/>
<stop offset="1" stop-color="#00CC99"/>
</linearGradient>
<linearGradient id="paint1_linear_1377_340" x1="8.57031" y1="21.074" x2="14.3821" y2="21.1149" gradientUnits="userSpaceOnUse">
<stop stop-color="#6600FF"/>
<stop offset="1" stop-color="#00CC99"/>
</linearGradient>
<linearGradient id="paint2_linear_1377_340" x1="9.21191" y1="34.96" x2="21.7623" y2="36.5728" gradientUnits="userSpaceOnUse">
<stop stop-color="#6600FF"/>
<stop offset="1" stop-color="#00CC99"/>
</linearGradient>
<linearGradient id="paint3_linear_1377_340" x1="9.21582" y1="37.6992" x2="21.7624" y2="39.3134" gradientUnits="userSpaceOnUse">
<stop stop-color="#6600FF"/>
<stop offset="1" stop-color="#00CC99"/>
</linearGradient>
<linearGradient id="paint4_linear_1377_340" x1="15.9482" y1="25.9634" x2="21.5425" y2="26.2791" gradientUnits="userSpaceOnUse">
<stop stop-color="#6600FF"/>
<stop offset="1" stop-color="#00CC99"/>
</linearGradient>
<linearGradient id="paint5_linear_1377_340" x1="15.9482" y1="28.7004" x2="21.5415" y2="29.0161" gradientUnits="userSpaceOnUse">
<stop stop-color="#6600FF"/>
<stop offset="1" stop-color="#00CC99"/>
</linearGradient>
<linearGradient id="paint6_linear_1377_340" x1="15.9473" y1="23.2163" x2="21.5398" y2="23.5318" gradientUnits="userSpaceOnUse">
<stop stop-color="#6600FF"/>
<stop offset="1" stop-color="#00CC99"/>
</linearGradient>
<linearGradient id="paint7_linear_1377_340" x1="8.81543" y1="13.7583" x2="22.1331" y2="15.5825" gradientUnits="userSpaceOnUse">
<stop stop-color="#6600FF"/>
<stop offset="1" stop-color="#00CC99"/>
</linearGradient>
<linearGradient id="paint8_linear_1377_340" x1="11.1602" y1="11.2761" x2="19.8923" y2="12.0487" gradientUnits="userSpaceOnUse">
<stop stop-color="#6600FF"/>
<stop offset="1" stop-color="#00CC99"/>
</linearGradient>
<clipPath id="clip0_1377_340">
<rect width="29.5359" height="48" fill="white" transform="translate(0.732422)"/>
</clipPath>
</defs>
</svg>
