<svg width="53" height="48" viewBox="0 0 53 48" fill="none" xmlns="http://www.w3.org/2000/svg">
<g clip-path="url(#clip0_1395_158)">
<path d="M0.895508 10.7992C1.27024 9.89635 1.95302 9.59763 2.91318 9.59896C15.9087 9.6163 28.9042 9.61096 41.901 9.61096H42.5931C42.5931 9.31491 42.5985 9.06954 42.5931 8.8255C42.5785 8.21473 42.7932 7.69464 43.1626 7.21323C43.2906 7.04654 43.3746 6.8065 43.3839 6.59579C43.4133 5.98103 43.3839 5.36359 43.3986 4.74615C43.4173 3.88468 44.0547 3.23524 44.9162 3.2059C45.4656 3.18723 46.0164 3.18723 46.5658 3.2059C47.4259 3.23524 48.0594 3.87934 48.0954 4.74349C48.1087 5.05954 48.1087 5.37692 48.0967 5.69298C48.0714 6.38909 48.0594 7.05054 48.5768 7.64797C48.8088 7.91601 48.8222 8.38943 48.8902 8.77749C48.9342 9.0322 48.8982 9.30025 48.8982 9.59629C50.1157 9.68164 51.5026 9.2389 52.1027 10.7978V38.8052C51.7266 39.708 51.0385 40.0694 50.081 39.9974C49.7036 39.9694 49.3236 39.9934 49.0315 39.9934C48.8155 41.1669 48.6715 42.2897 48.3928 43.3779C48.114 44.4674 47.638 45.4796 46.6418 46.1437C46.5565 46.2011 46.5111 46.3638 46.5018 46.4811C46.4804 46.7465 46.5098 47.0159 46.4858 47.2799C46.4471 47.708 46.1217 48.004 45.7296 47.9987C45.3349 47.9934 44.9722 47.684 45.0122 47.2612C45.0762 46.5745 44.8268 46.1424 44.3134 45.6663C43.3653 44.7862 43.0225 43.5433 42.8158 42.3017C42.6745 41.4523 42.6011 40.5801 42.5998 39.7186C42.5851 30.4171 42.5905 21.1142 42.5905 11.8127V11.1432H2.43176V38.4931C2.6478 38.4931 2.8585 38.4931 3.0692 38.4931C15.2872 38.4931 27.5053 38.4931 39.7246 38.4931C40.5101 38.4931 40.8608 38.7105 40.8795 39.2092C40.8982 39.7266 40.5088 39.9934 39.7233 39.9934C27.4546 39.9934 15.1872 39.988 2.91851 40.004C1.96102 40.004 1.27157 39.7093 0.896841 38.8052V10.7992H0.895508ZM44.0934 25.627H47.4006C47.4006 25.4043 47.4006 25.2082 47.4006 25.0122C47.4006 20.8448 47.4006 16.6788 47.4006 12.5114C47.4006 11.3619 47.4006 10.2111 47.4006 9.06154C47.3993 8.18139 47.1205 7.90935 46.2244 7.90668C45.9083 7.90668 45.591 7.90668 45.2749 7.90668C44.3521 7.90801 44.0947 8.16672 44.0947 9.09888C44.0947 14.4331 44.0947 19.766 44.0947 25.1002V25.627H44.0934ZM50.5758 38.4664V11.1459H48.9355V38.4651H50.5758V38.4664ZM44.1174 38.4544H47.3593V30.4011H44.1174V38.4544ZM44.0614 40.0147C44.1147 40.6028 44.132 41.1335 44.2161 41.655C44.3761 42.6591 44.6188 43.646 45.2309 44.4888C45.6136 45.0155 45.8803 45.0129 46.2577 44.4768C46.4564 44.1941 46.6258 43.882 46.7538 43.5606C47.2032 42.4271 47.4033 41.2482 47.3846 40.0147H44.0614ZM44.12 28.8382H47.3619V27.2019H44.12V28.8382ZM46.5765 4.72615H44.9215V6.37309H46.5765V4.72615Z" fill="url(#paint0_linear_1395_158)"/>
<path d="M38.5561 18.3871V15.9187C38.3308 15.9187 38.1214 15.9187 37.912 15.9187C29.4799 15.9187 21.0479 15.9187 12.6145 15.9187C12.4478 15.9187 12.2811 15.924 12.1144 15.916C11.6423 15.8946 11.3276 15.6066 11.3169 15.1945C11.3063 14.7905 11.6183 14.4717 12.0797 14.4251C12.2117 14.4117 12.3464 14.4184 12.4798 14.4184C21.0292 14.4184 29.5773 14.4184 38.1267 14.4184C39.5216 14.4184 40.0831 14.9878 40.0844 16.4001C40.0844 16.9828 40.0871 17.5669 40.0844 18.1497C40.0777 19.3219 39.4749 19.9273 38.2921 19.9327C36.6758 19.9393 35.0595 19.934 33.4433 19.934C24.8445 19.934 16.2457 19.9327 7.64698 19.938C7.06155 19.938 6.47345 19.9113 6.11472 19.3966C5.90002 19.0872 5.75066 18.6804 5.71999 18.3044C5.65998 17.5589 5.69465 16.8055 5.70399 16.056C5.71733 15.1252 6.32809 14.4744 7.24825 14.4264C7.763 14.3997 8.28175 14.4051 8.79784 14.4251C9.30726 14.4451 9.60997 14.7545 9.60064 15.1959C9.5913 15.6359 9.28459 15.9067 8.76183 15.916C8.26575 15.924 7.76833 15.9173 7.23758 15.9173V18.3871H38.5575H38.5561Z" fill="url(#paint1_linear_1395_158)"/>
<path d="M11.2056 34.511C11.1029 34.9658 11.5109 35.9566 10.4454 35.9393C9.44394 35.9233 9.79333 34.9778 9.68664 34.3817C9.19323 34.2217 8.69315 34.1016 8.22773 33.8976C7.40493 33.5362 6.75416 32.9868 6.54746 32.052C6.42477 31.4972 6.62747 31.0905 7.07688 30.9758C7.54095 30.8571 7.81033 31.1238 8.02503 31.6786C8.14505 31.9866 8.4251 32.312 8.71982 32.46C9.87468 33.0388 11.0722 33.0321 12.2324 32.4654C13.1339 32.0253 13.1686 31.1958 12.2831 30.7304C11.6123 30.3784 10.8668 30.1663 10.1521 29.9023C9.57463 29.6889 8.97053 29.5382 8.41977 29.2742C7.97703 29.0621 7.54229 28.7781 7.1969 28.4327C6.19273 27.4272 6.25141 25.9043 7.3916 25.0655C8.04237 24.5867 8.84917 24.3187 9.58529 23.956L9.71198 24.0853C9.71198 23.8079 9.69998 23.5292 9.71465 23.2518C9.74132 22.7558 10.0574 22.4424 10.4934 22.457C10.9162 22.4717 11.1896 22.7718 11.2069 23.2558C11.2162 23.5199 11.2082 23.7853 11.2082 24.0066C11.815 24.2227 12.3938 24.3814 12.9285 24.6321C13.578 24.9361 14.0914 25.4162 14.3114 26.131C14.3781 26.3484 14.4101 26.5897 14.3968 26.8164C14.3741 27.2032 14.106 27.4752 13.754 27.4485C13.4899 27.4285 13.0619 27.2085 13.0219 27.0138C12.8365 26.103 12.1617 25.8323 11.4163 25.6629C10.4841 25.4509 9.55596 25.5015 8.69181 25.9536C7.78633 26.427 7.74765 27.2112 8.6478 27.6886C9.30258 28.0353 10.032 28.2407 10.7308 28.5047C11.4296 28.7688 12.1791 28.9461 12.8138 29.3168C13.3366 29.6222 13.8407 30.0876 14.1487 30.6037C14.7355 31.5866 14.4461 32.7601 13.4619 33.4242C12.8152 33.8603 12.047 34.115 11.2042 34.511H11.2056Z" fill="url(#paint2_linear_1395_158)"/>
<path d="M32.5061 33.8684C33.5729 32.1708 35.1905 31.9414 36.9561 32.0748C37.4535 32.1121 37.955 32.0735 38.455 32.0841C38.9365 32.0948 39.2498 32.3709 39.2739 32.7816C39.2979 33.2003 38.9711 33.5577 38.4817 33.5697C37.5989 33.5937 36.7148 33.6057 35.8333 33.5711C35.1318 33.5444 34.5691 33.7578 34.1037 34.2832C33.7943 34.6312 33.4529 34.9526 33.1168 35.274C32.7194 35.6541 32.4047 35.6767 31.9646 35.3407C31.0258 34.6232 30.0963 33.8951 29.1175 33.1363C28.8708 33.5404 28.6467 33.9258 28.4067 34.2992C28 34.9339 27.3705 34.9286 26.9931 34.2765C26.5531 33.5177 26.1343 32.7469 25.6729 31.9214C25.3302 32.4882 25.0315 32.9843 24.7301 33.479C23.89 34.8539 22.3377 35.5114 20.7668 35.154C20.352 35.0593 20.1213 34.7886 20.1533 34.3672C20.1853 33.9484 20.4427 33.7044 20.8761 33.6871C21.1762 33.6751 21.4762 33.6791 21.7749 33.6804C22.5031 33.6831 23.0511 33.3844 23.4245 32.7483C23.93 31.8868 24.446 31.032 24.9688 30.1812C25.4009 29.477 26.0263 29.4877 26.4344 30.2025C26.8611 30.9506 27.2759 31.7067 27.7253 32.5109C27.8986 32.2308 28.0333 32.0068 28.172 31.7854C28.5401 31.1973 28.9508 31.1106 29.4949 31.528C30.4724 32.2775 31.4405 33.039 32.5061 33.8684Z" fill="url(#paint3_linear_1395_158)"/>
<path d="M28.4825 24.7455C25.2993 24.7455 22.1148 24.7455 18.9316 24.7455C18.7316 24.7455 18.5289 24.7495 18.3342 24.7162C17.9514 24.6495 17.7527 24.3815 17.7434 24.0161C17.7354 23.648 17.9261 23.3746 18.3035 23.2906C18.4795 23.2506 18.6676 23.2493 18.8489 23.2493C25.2833 23.248 31.7177 23.248 38.1508 23.2493C38.2842 23.2493 38.4189 23.2453 38.5509 23.2613C38.9856 23.312 39.279 23.6214 39.275 24.0108C39.2697 24.4028 38.9723 24.7002 38.5335 24.7389C38.3682 24.7535 38.2001 24.7482 38.0335 24.7482C34.8503 24.7482 31.6657 24.7482 28.4825 24.7482V24.7455Z" fill="url(#paint4_linear_1395_158)"/>
<path d="M28.5004 27.9594C25.2999 27.9594 22.0994 27.9594 18.8988 27.9594C18.0987 27.9594 17.7227 27.7087 17.7347 27.1899C17.7467 26.6898 18.1054 26.4604 18.8815 26.4604C25.2986 26.4604 31.717 26.4604 38.1341 26.4604C38.9022 26.4604 39.2689 26.6992 39.2756 27.1979C39.2822 27.7033 38.9075 27.9594 38.1514 27.9594C34.9349 27.9594 31.717 27.9594 28.5004 27.9594Z" fill="url(#paint5_linear_1395_158)"/>
</g>
<defs>
<linearGradient id="paint0_linear_1395_158" x1="-1" y1="10.5" x2="55" y2="40" gradientUnits="userSpaceOnUse">
<stop stop-color="#6600FF"/>
<stop offset="1" stop-color="#00CC99"/>
</linearGradient>
<linearGradient id="paint1_linear_1395_158" x1="4.41218" y1="15.3101" x2="9.62336" y2="30.253" gradientUnits="userSpaceOnUse">
<stop stop-color="#6600FF"/>
<stop offset="1" stop-color="#00CC99"/>
</linearGradient>
<linearGradient id="paint2_linear_1395_158" x1="6.19253" y1="24.6556" x2="16.5502" y2="27.4755" gradientUnits="userSpaceOnUse">
<stop stop-color="#6600FF"/>
<stop offset="1" stop-color="#00CC99"/>
</linearGradient>
<linearGradient id="paint3_linear_1395_158" x1="19.4425" y1="30.6248" x2="27.7416" y2="42.9887" gradientUnits="userSpaceOnUse">
<stop stop-color="#6600FF"/>
<stop offset="1" stop-color="#00CC99"/>
</linearGradient>
<linearGradient id="paint4_linear_1395_158" x1="16.9461" y1="23.4931" x2="17.6186" y2="27.9403" gradientUnits="userSpaceOnUse">
<stop stop-color="#6600FF"/>
<stop offset="1" stop-color="#00CC99"/>
</linearGradient>
<linearGradient id="paint5_linear_1395_158" x1="16.937" y1="26.7049" x2="17.6075" y2="31.1468" gradientUnits="userSpaceOnUse">
<stop stop-color="#6600FF"/>
<stop offset="1" stop-color="#00CC99"/>
</linearGradient>
<clipPath id="clip0_1395_158">
<rect width="51.2085" height="48" fill="white" transform="translate(0.895508)"/>
</clipPath>
</defs>
</svg>
