<svg width="22" height="22" viewBox="0 0 22 22" fill="none" xmlns="http://www.w3.org/2000/svg">
<path d="M17.5312 3.09375H4.46875C4.10408 3.09375 3.75434 3.23862 3.49648 3.49648C3.23862 3.75434 3.09375 4.10408 3.09375 4.46875V17.5312C3.09375 17.8959 3.23862 18.2457 3.49648 18.5035C3.75434 18.7614 4.10408 18.9062 4.46875 18.9062H17.5312C17.8959 18.9062 18.2457 18.7614 18.5035 18.5035C18.7614 18.2457 18.9062 17.8959 18.9062 17.5312V4.46875C18.9062 4.10408 18.7614 3.75434 18.5035 3.49648C18.2457 3.23862 17.8959 3.09375 17.5312 3.09375ZM17.5312 10.3125H11.6875V4.46875H17.5312V10.3125ZM10.3125 4.46875V10.3125H4.46875V4.46875H10.3125ZM4.46875 11.6875H10.3125V17.5312H4.46875V11.6875ZM17.5312 17.5312H11.6875V11.6875H17.5312V17.5312Z" fill="#333333"/>
</svg>
