<svg width="22" height="22" viewBox="0 0 22 22" fill="none" xmlns="http://www.w3.org/2000/svg">
<path d="M6.875 5.5C6.875 5.31766 6.94743 5.1428 7.07636 5.01386C7.2053 4.88493 7.38016 4.8125 7.5625 4.8125H18.5625C18.7448 4.8125 18.9197 4.88493 19.0486 5.01386C19.1776 5.1428 19.25 5.31766 19.25 5.5C19.25 5.68234 19.1776 5.8572 19.0486 5.98614C18.9197 6.11507 18.7448 6.1875 18.5625 6.1875H7.5625C7.38016 6.1875 7.2053 6.11507 7.07636 5.98614C6.94743 5.8572 6.875 5.68234 6.875 5.5ZM18.5625 10.3125H7.5625C7.38016 10.3125 7.2053 10.3849 7.07636 10.5139C6.94743 10.6428 6.875 10.8177 6.875 11C6.875 11.1823 6.94743 11.3572 7.07636 11.4861C7.2053 11.6151 7.38016 11.6875 7.5625 11.6875H18.5625C18.7448 11.6875 18.9197 11.6151 19.0486 11.4861C19.1776 11.3572 19.25 11.1823 19.25 11C19.25 10.8177 19.1776 10.6428 19.0486 10.5139C18.9197 10.3849 18.7448 10.3125 18.5625 10.3125ZM18.5625 15.8125H7.5625C7.38016 15.8125 7.2053 15.8849 7.07636 16.0139C6.94743 16.1428 6.875 16.3177 6.875 16.5C6.875 16.6823 6.94743 16.8572 7.07636 16.9861C7.2053 17.1151 7.38016 17.1875 7.5625 17.1875H18.5625C18.7448 17.1875 18.9197 17.1151 19.0486 16.9861C19.1776 16.8572 19.25 16.6823 19.25 16.5C19.25 16.3177 19.1776 16.1428 19.0486 16.0139C18.9197 15.8849 18.7448 15.8125 18.5625 15.8125ZM3.78125 4.46875C3.57729 4.46875 3.37791 4.52923 3.20832 4.64255C3.03873 4.75586 2.90655 4.91692 2.8285 5.10536C2.75045 5.29379 2.73002 5.50114 2.76982 5.70119C2.80961 5.90123 2.90782 6.08498 3.05205 6.2292C3.19627 6.37343 3.38002 6.47164 3.58006 6.51144C3.78011 6.55123 3.98746 6.5308 4.17589 6.45275C4.36433 6.3747 4.52539 6.24252 4.6387 6.07293C4.75202 5.90334 4.8125 5.70396 4.8125 5.5C4.8125 5.2265 4.70385 4.96419 4.51045 4.7708C4.31706 4.5774 4.05476 4.46875 3.78125 4.46875ZM3.78125 9.96875C3.57729 9.96875 3.37791 10.0292 3.20832 10.1425C3.03873 10.2559 2.90655 10.4169 2.8285 10.6054C2.75045 10.7938 2.73002 11.0011 2.76982 11.2012C2.80961 11.4012 2.90782 11.585 3.05205 11.7292C3.19627 11.8734 3.38002 11.9716 3.58006 12.0114C3.78011 12.0512 3.98746 12.0308 4.17589 11.9528C4.36433 11.8747 4.52539 11.7425 4.6387 11.5729C4.75202 11.4033 4.8125 11.204 4.8125 11C4.8125 10.7265 4.70385 10.4642 4.51045 10.2708C4.31706 10.0774 4.05476 9.96875 3.78125 9.96875ZM3.78125 15.4688C3.57729 15.4688 3.37791 15.5292 3.20832 15.6425C3.03873 15.7559 2.90655 15.9169 2.8285 16.1054C2.75045 16.2938 2.73002 16.5011 2.76982 16.7012C2.80961 16.9012 2.90782 17.085 3.05205 17.2292C3.19627 17.3734 3.38002 17.4716 3.58006 17.5114C3.78011 17.5512 3.98746 17.5308 4.17589 17.4528C4.36433 17.3747 4.52539 17.2425 4.6387 17.0729C4.75202 16.9033 4.8125 16.704 4.8125 16.5C4.8125 16.2265 4.70385 15.9642 4.51045 15.7708C4.31706 15.5774 4.05476 15.4688 3.78125 15.4688Z" fill="#333333"/>
</svg>
