<svg width="48" height="48" viewBox="0 0 48 48" fill="none" xmlns="http://www.w3.org/2000/svg">
<path d="M42 24C42 24.3978 41.842 24.7794 41.5607 25.0607C41.2794 25.342 40.8978 25.5 40.5 25.5H25.5V40.5C25.5 40.8978 25.342 41.2794 25.0607 41.5607C24.7794 41.842 24.3978 42 24 42C23.6022 42 23.2206 41.842 22.9393 41.5607C22.658 41.2794 22.5 40.8978 22.5 40.5V25.5H7.5C7.10218 25.5 6.72064 25.342 6.43934 25.0607C6.15804 24.7794 6 24.3978 6 24C6 23.6022 6.15804 23.2206 6.43934 22.9393C6.72064 22.658 7.10218 22.5 7.5 22.5H22.5V7.5C22.5 7.10218 22.658 6.72064 22.9393 6.43934C23.2206 6.15804 23.6022 6 24 6C24.3978 6 24.7794 6.15804 25.0607 6.43934C25.342 6.72064 25.5 7.10218 25.5 7.5V22.5H40.5C40.8978 22.5 41.2794 22.658 41.5607 22.9393C41.842 23.2206 42 23.6022 42 24Z" fill="#A9A9A9"/>
</svg>
