<svg width="28" height="28" viewBox="0 0 28 28" fill="none" xmlns="http://www.w3.org/2000/svg">
<path d="M25.1232 23.8766L20.3873 19.1516C22.0588 17.1616 22.8975 14.6032 22.7285 12.0099C22.5595 9.41655 21.3958 6.98859 19.4802 5.23238C17.5646 3.47617 15.0449 2.5273 12.4467 2.58367C9.84848 2.64005 7.37235 3.6973 5.5347 5.53495C3.69706 7.37259 2.6398 9.84873 2.58343 12.4469C2.52706 15.0451 3.47593 17.5648 5.23214 19.4804C6.98835 21.396 9.4163 22.5597 12.0096 22.7287C14.6029 22.8977 17.1614 22.059 19.1514 20.3875L23.8764 25.1235C24.0436 25.2852 24.2672 25.3756 24.4998 25.3756C24.7325 25.3756 24.956 25.2852 25.1232 25.1235C25.2876 24.9576 25.3797 24.7335 25.3797 24.5C25.3797 24.2666 25.2876 24.0425 25.1232 23.8766ZM4.3748 12.6875C4.3748 11.0435 4.86232 9.43635 5.77571 8.06937C6.6891 6.70239 7.98734 5.63695 9.50625 5.0078C11.0252 4.37865 12.6965 4.21403 14.309 4.53477C15.9215 4.85551 17.4026 5.6472 18.5651 6.80972C19.7277 7.97225 20.5193 9.45339 20.8401 11.0659C21.1608 12.6783 20.9962 14.3497 20.3671 15.8686C19.7379 17.3875 18.6725 18.6858 17.3055 19.5991C15.9385 20.5125 14.3314 21 12.6873 21C10.4836 20.9972 8.37094 20.1204 6.81267 18.5622C5.25441 17.0039 4.3777 14.8913 4.3748 12.6875Z" fill="#A9A9A9"/>
</svg>
