<svg width="28" height="28" viewBox="0 0 28 28" fill="none" xmlns="http://www.w3.org/2000/svg">
    <g clip-path="url(#clip0_167_83)">
        <path d="M14.0001 -0.0297852C6.26423 -0.0297852 -0.0305176 6.26322 -0.0305176 14C-0.0305176 21.7367 6.26423 28.0297 14.0001 28.0297C21.736 28.0297 28.0307 21.7367 28.0307 14C28.0307 6.26322 21.736 -0.0297852 14.0001 -0.0297852ZM14.0001 27.0952C6.77961 27.0952 0.905732 21.2205 0.905732 14C0.905732 6.77947 6.77961 0.904715 14.0001 0.904715C21.2206 0.904715 27.0945 6.77947 27.0945 14C27.0945 21.2205 21.2206 27.0952 14.0001 27.0952Z"
              fill="#333333" fill-opacity="0.75"/>
        <path d="M17.0625 6.12504H14.728C11.7548 6.09529 11.375 7.93541 11.375 9.92691V11.375H10.0625C10.0032 11.3671 9.94284 11.373 9.88614 11.3922C9.82945 11.4113 9.77795 11.4433 9.73563 11.4857C9.69331 11.528 9.66131 11.5795 9.64213 11.6362C9.62294 11.6929 9.61709 11.7532 9.62501 11.8125V14.4375C9.61709 14.4969 9.62294 14.5572 9.64213 14.6139C9.66131 14.6706 9.69331 14.7221 9.73563 14.7644C9.77795 14.8067 9.82945 14.8387 9.88614 14.8579C9.94284 14.8771 10.0032 14.883 10.0625 14.875H11.375V21.4375C11.3677 21.497 11.3741 21.5573 11.3937 21.6139C11.4133 21.6704 11.4455 21.7218 11.488 21.764C11.5305 21.8062 11.582 21.8382 11.6387 21.8574C11.6954 21.8767 11.7558 21.8827 11.8151 21.875H14.4883C14.7464 21.9048 14.9555 21.6957 14.8733 21.4375L14.875 14.875H17.0625C17.1218 14.883 17.1822 14.8771 17.2389 14.8579C17.2956 14.8387 17.3471 14.8067 17.3894 14.7644C17.4317 14.7221 17.4637 14.6706 17.4829 14.6139C17.5021 14.5572 17.5079 14.4969 17.5 14.4375V11.8125C17.5079 11.7532 17.5021 11.6929 17.4829 11.6362C17.4637 11.5795 17.4317 11.528 17.3894 11.4857C17.3471 11.4433 17.2956 11.4113 17.2389 11.3922C17.1822 11.373 17.1218 11.3671 17.0625 11.375H14.8724L14.875 10.0625C14.9599 9.50341 14.9599 9.59441 15.4788 9.62504H17.0441C17.1658 9.59791 17.2953 9.61279 17.3863 9.52441C17.4773 9.43604 17.5298 9.31528 17.4991 9.18754V6.56254C17.5072 6.50326 17.5015 6.44292 17.4824 6.38622C17.4633 6.32952 17.4314 6.27799 17.3892 6.23565C17.3469 6.1933 17.2955 6.16129 17.2388 6.1421C17.1821 6.12292 17.1218 6.11708 17.0625 6.12504ZM16.5944 8.70104L15.4971 8.65903C14.1383 8.65903 14.0245 9.39666 14.0245 10.1518L14.021 11.8108C14.0209 11.8722 14.0329 11.9331 14.0563 11.9899C14.0798 12.0467 14.1142 12.0983 14.1576 12.1417C14.201 12.1852 14.2525 12.2197 14.3092 12.2433C14.366 12.2668 14.4268 12.2789 14.4883 12.2789H16.625V13.9694H14.49C14.366 13.9694 14.2471 14.0186 14.1593 14.1062C14.0715 14.1938 14.0221 14.3127 14.0219 14.4367L14.021 21H12.25V14.4375C12.25 14.1794 12.0741 13.9703 11.8151 13.9703H10.5V12.2798H11.8151C11.8765 12.2799 11.9373 12.2679 11.9941 12.2444C12.0508 12.221 12.1024 12.1867 12.1459 12.1433C12.2334 12.0549 12.2491 11.9359 12.2491 11.8117V9.92603C12.2491 7.96428 12.6455 7.02979 14.7271 7.02979H16.5935V8.70104H16.5944Z"
              fill="#333333" fill-opacity="0.75"/>
    </g>
    <defs>
        <clipPath id="clip0_167_83">
            <rect width="28" height="28" fill="white"/>
        </clipPath>
    </defs>
</svg>
