<svg width="28" height="28" viewBox="0 0 28 28" fill="none" xmlns="http://www.w3.org/2000/svg">
    <g clip-path="url(#clip0_167_87)">
        <path d="M14 -0.0297852C6.26322 -0.0297852 -0.0297852 6.26322 -0.0297852 14C-0.0297852 21.7367 6.26322 28.0297 14 28.0297C21.7367 28.0297 28.0297 21.7367 28.0297 14C28.0297 6.26322 21.7367 -0.0297852 14 -0.0297852ZM14 27.0952C6.77947 27.0952 0.904715 21.2205 0.904715 14C0.904715 6.77947 6.77947 0.904715 14 0.904715C21.2205 0.904715 27.0952 6.77947 27.0952 14C27.0952 21.2205 21.2205 27.0952 14 27.0952Z"
              fill="#333333" fill-opacity="0.75"/>
        <path d="M15.7798 8.36666C15.7798 8.24274 15.7306 8.1239 15.6429 8.03627C15.5553 7.94864 15.4365 7.89941 15.3126 7.89941H11.5851C11.5623 7.89941 11.5439 7.90904 11.5221 7.91254C11.4722 7.91079 11.4258 7.89941 11.3751 7.89941C9.42818 7.89941 7.8453 9.24954 7.8453 10.9094C7.8453 12.5693 9.42905 13.9194 11.3751 13.9194C11.6437 13.9194 11.9027 13.8888 12.1547 13.8398C12.0786 14.1243 12.059 14.421 12.0969 14.713C12.1381 15.0184 12.2597 15.3107 12.4189 15.595C12.0866 15.534 11.7496 15.5021 11.4118 15.4997C9.0038 15.4997 7.04468 16.9478 7.04468 18.7284C7.04468 20.509 9.0038 21.9572 11.4118 21.9572C13.8207 21.9572 15.7798 20.509 15.7798 18.7284C15.7798 17.8132 15.2566 16.9898 14.4262 16.4018C14.3951 16.3147 14.338 16.2392 14.2626 16.1857C13.5206 15.6834 13.1049 15.1497 13.0262 14.6002C12.9387 13.9885 13.2992 13.5414 13.3176 13.5187C13.3553 13.4735 13.3841 13.4215 13.4024 13.3655C14.3089 12.8204 14.9057 11.9244 14.9057 10.9085C14.9057 10.1027 14.5277 9.37379 13.9213 8.83304H15.3126C15.3739 8.83327 15.4347 8.82137 15.4914 8.79803C15.5482 8.77468 15.5997 8.74035 15.6432 8.69701C15.6866 8.65367 15.721 8.60217 15.7445 8.54548C15.7679 8.48879 15.7799 8.42802 15.7798 8.36666ZM11.4118 21.0244C9.51918 21.0244 7.97918 19.9945 7.97918 18.7302C7.97918 17.4658 9.51918 16.4359 11.4118 16.4359C13.3044 16.4359 14.8453 17.4658 14.8453 18.7302C14.8453 19.9945 13.3044 21.0244 11.4118 21.0244ZM11.3751 12.9858C9.94443 12.9858 8.7798 12.0548 8.7798 10.9103C8.7798 9.76579 9.94443 8.83479 11.3751 8.83479C12.8057 8.83479 13.9703 9.76579 13.9703 10.9103C13.9703 12.0548 12.8057 12.9858 11.3751 12.9858ZM22.1481 10.4999H20.0997V8.42179C20.0997 8.16366 19.8906 7.95454 19.6324 7.95454C19.3743 7.95454 19.1652 8.16366 19.2501 8.31241V10.4999H17.1168C16.8587 10.4702 16.6496 10.6793 16.6496 10.9374C16.6496 11.1955 16.8587 11.4047 17.1168 11.3749H19.2501V13.453C19.2501 13.7112 19.3752 13.9203 19.6333 13.9203C19.8914 13.9203 20.1006 13.7112 20.1006 13.453V11.3749H22.1489C22.4071 11.4047 22.6162 11.1955 22.6162 10.9374C22.6162 10.6793 22.4062 10.4702 22.1481 10.4999Z"
              fill="#333333" fill-opacity="0.75"/>
    </g>
    <defs>
        <clipPath id="clip0_167_87">
            <rect width="28" height="28" fill="white"/>
        </clipPath>
    </defs>
</svg>
