<svg width="28" height="28" viewBox="0 0 28 28" fill="none" xmlns="http://www.w3.org/2000/svg">
    <g clip-path="url(#clip0_167_79)">
        <path d="M17.0756 10.458C16.4823 10.458 16.0431 10.6076 15.6992 10.7966C15.6441 10.6006 15.463 10.4571 15.2495 10.5H12.6385C12.3803 10.4571 12.1712 10.6662 12.2508 10.9375V20.5625C12.1712 20.8075 12.3803 21.0175 12.6385 21H15.2495C15.5076 21.0175 15.7167 20.8075 15.7167 20.5493L15.7158 14.7323C15.715 14.7297 15.7053 14.4515 15.8812 14.2598C16.0221 14.1076 16.2645 14.0297 16.5996 14.0297C17.1578 14.0297 17.4063 14.2581 17.4991 14.7691V20.5493C17.4072 20.8075 17.6163 21.0175 17.8745 21H20.6263C20.8845 21.0175 21.0936 20.8075 21.0008 20.5493V14.5748C21.0927 11.5368 18.9288 10.458 17.0756 10.458ZM20.1582 20.125H18.3417V14.7691C18.3417 13.7357 17.6741 13.0952 16.6005 13.0952C15.9932 13.0952 15.5207 13.2737 15.1952 13.6255C14.7428 14.1155 14.7778 14.7367 14.875 14.875V20.125H13.1057V11.3925H14.7822V11.6865C14.7815 11.774 14.8056 11.86 14.8516 11.9346C14.8976 12.0091 14.9637 12.0692 15.0422 12.1078C15.1208 12.1465 15.2087 12.1622 15.2959 12.1531C15.383 12.144 15.4658 12.1106 15.5347 12.0566L15.6572 11.9621C16.0116 11.683 16.3782 11.3933 17.0765 11.3933C17.7992 11.3933 20.1591 11.6235 20.1591 14.5757V20.125H20.1582ZM9.62497 6.09521C8.64322 6.09521 7.84521 6.89321 7.84521 7.87496C7.84521 8.85671 8.64322 9.65472 9.62497 9.65472C10.6067 9.65472 11.4047 8.85671 11.4047 7.87496C11.4047 6.89321 10.6067 6.09521 9.62497 6.09521ZM9.62497 8.72021C9.15947 8.72021 8.77972 8.34046 8.77972 7.87496C8.77972 7.40946 9.15947 7.02972 9.62497 7.02972C10.0905 7.02972 10.4702 7.40946 10.4702 7.87496C10.4702 8.34046 10.0905 8.72021 9.62497 8.72021ZM10.8745 10.4571H8.27747C8.01934 10.4571 7.81022 10.6662 7.87497 10.9375V20.5625C7.81022 20.8075 8.01934 21.0175 8.27747 21H10.8745C11.1326 21.0175 11.3417 20.8075 11.3417 20.5493V10.9243C11.3417 10.8004 11.2925 10.6816 11.2049 10.5939C11.1172 10.5063 10.9984 10.4571 10.8745 10.4571ZM10.5 20.125H8.74472V11.3925H10.5V20.125Z"
              fill="#333333" fill-opacity="0.75"/>
        <path d="M14 -0.0297852C6.26322 -0.0297852 -0.0297852 6.26322 -0.0297852 14C-0.0297852 21.7367 6.26322 28.0297 14 28.0297C21.7367 28.0297 28.0297 21.7367 28.0297 14C28.0297 6.26322 21.7367 -0.0297852 14 -0.0297852ZM14 27.0952C6.77947 27.0952 0.904715 21.2205 0.904715 14C0.904715 6.77947 6.77947 0.904715 14 0.904715C21.2205 0.904715 27.0952 6.77947 27.0952 14C27.0952 21.2205 21.2205 27.0952 14 27.0952Z"
              fill="#333333" fill-opacity="0.75"/>
    </g>
    <defs>
        <clipPath id="clip0_167_79">
            <rect width="28" height="28" fill="white"/>
        </clipPath>
    </defs>
</svg>
