<svg width="24" height="24" viewBox="0 0 24 24" fill="none" xmlns="http://www.w3.org/2000/svg">
    <path d="M16.5 21C9.05625 21 3 14.9438 3 7.50001C3.00281 6.22319 3.46919 4.99083 4.31243 4.03206C5.15566 3.07329 6.31837 2.45336 7.58437 2.28751C7.90711 2.25172 8.23284 2.31967 8.51435 2.4815C8.79586 2.64332 9.01851 2.89061 9.15 3.18751L11.0344 7.58438C11.1321 7.81261 11.1713 8.06163 11.1484 8.30885C11.1255 8.55607 11.0412 8.79364 10.9031 9.00001L9.34687 11.3813C10.0516 12.8114 11.2127 13.966 12.6469 14.6625L15 13.0969C15.2061 12.9579 15.4443 12.8738 15.692 12.8525C15.9397 12.8312 16.1888 12.8733 16.4156 12.975L20.8125 14.85C21.1094 14.9815 21.3567 15.2041 21.5185 15.4857C21.6803 15.7672 21.7483 16.0929 21.7125 16.4156C21.5467 17.6816 20.9267 18.8443 19.9679 19.6876C19.0092 20.5308 17.7768 20.9972 16.5 21ZM7.77187 3.77813C6.86714 3.89443 6.03582 4.33652 5.43356 5.02161C4.8313 5.70671 4.4994 6.58783 4.5 7.50001C4.50248 10.6818 5.76756 13.7326 8.01746 15.9825C10.2674 18.2324 13.3182 19.4975 16.5 19.5C17.4122 19.5006 18.2933 19.1687 18.9784 18.5664C19.6635 17.9642 20.1056 17.1329 20.2219 16.2281L15.825 14.3531L13.4812 15.9188C13.2656 16.0613 13.0168 16.1457 12.7589 16.1638C12.501 16.1819 12.2428 16.133 12.0094 16.0219C10.2628 15.177 8.84994 13.7708 7.99687 12.0281C7.8844 11.7955 7.83393 11.5378 7.85036 11.2799C7.86678 11.022 7.94955 10.7727 8.09062 10.5563L9.65625 8.17501L7.77187 3.77813Z"
          fill="#333333" fill-opacity="0.75"/>
</svg>
