<svg width="22" height="22" viewBox="0 0 22 22" fill="none" xmlns="http://www.w3.org/2000/svg">
<path d="M8.93734 16.8437C8.66394 16.8426 8.40183 16.7346 8.20687 16.543L3.39437 11.7305C3.20063 11.5367 3.0918 11.274 3.0918 11C3.0918 10.726 3.20063 10.4633 3.39437 10.2695C3.5881 10.0758 3.85086 9.96695 4.12484 9.96695C4.39881 9.96695 4.66157 10.0758 4.8553 10.2695L8.93734 14.3516L17.8319 5.45702C17.9278 5.36109 18.0417 5.285 18.167 5.23308C18.2923 5.18117 18.4267 5.15445 18.5623 5.15445C18.698 5.15445 18.8323 5.18117 18.9577 5.23308C19.083 5.285 19.1969 5.36109 19.2928 5.45702C19.3887 5.55295 19.4648 5.66683 19.5167 5.79216C19.5687 5.9175 19.5954 6.05183 19.5954 6.18749C19.5954 6.32315 19.5687 6.45748 19.5167 6.58282C19.4648 6.70815 19.3887 6.82203 19.2928 6.91796L9.6678 16.543C9.47285 16.7346 9.21073 16.8426 8.93734 16.8437Z" fill="#00CC99" fill-opacity="0.7"/>
</svg>
