<svg width="28" height="28" viewBox="0 0 28 28" fill="none" xmlns="http://www.w3.org/2000/svg">
    <g clip-path="url(#clip0_429_9)">
        <path d="M20.3543 13.2222H14.7777V7.64558C14.7777 7.4393 14.6957 7.24147 14.5499 7.0956C14.404 6.94974 14.2062 6.8678 13.9999 6.8678C13.7936 6.8678 13.5958 6.94974 13.4499 7.0956C13.3041 7.24147 13.2221 7.4393 13.2221 7.64558V13.2222H7.64545C7.43917 13.2222 7.24134 13.3042 7.09548 13.45C6.94962 13.5959 6.86768 13.7937 6.86768 14C6.86768 14.2063 6.94962 14.4041 7.09548 14.55C7.24134 14.6959 7.43917 14.7778 7.64545 14.7778H13.2221V20.3545C13.2221 20.5607 13.3041 20.7586 13.4499 20.9044C13.5958 21.0503 13.7936 21.1322 13.9999 21.1322C14.2062 21.1322 14.404 21.0503 14.5499 20.9044C14.6957 20.7586 14.7777 20.5607 14.7777 20.3545V14.7778H20.3543C20.5606 14.7778 20.7585 14.6959 20.9043 14.55C21.0502 14.4041 21.1321 14.2063 21.1321 14C21.1321 13.7937 21.0502 13.5959 20.9043 13.45C20.7585 13.3042 20.5606 13.2222 20.3543 13.2222Z"
              fill="#565656"/>
        <path d="M14.0001 1.55554C11.5388 1.55554 9.13283 2.2854 7.08635 3.65281C5.03987 5.02022 3.44484 6.96378 2.50295 9.2377C1.56106 11.5116 1.31461 14.0138 1.79479 16.4278C2.27496 18.8418 3.46018 21.0592 5.20056 22.7995C6.94095 24.5399 9.15834 25.7251 11.5723 26.2053C13.9863 26.6855 16.4885 26.439 18.7624 25.4972C21.0363 24.5553 22.9799 22.9602 24.3473 20.9137C25.7147 18.8673 26.4446 16.4613 26.4446 14C26.4446 10.6995 25.1335 7.53422 22.7997 5.20044C20.4659 2.86665 17.3006 1.55554 14.0001 1.55554ZM14.0001 24.8889C11.8465 24.8889 9.74124 24.2503 7.95057 23.0538C6.1599 21.8573 4.76425 20.1567 3.94009 18.167C3.11594 16.1773 2.9003 13.9879 3.32045 11.8757C3.7406 9.76343 4.77767 7.82322 6.30051 6.30038C7.82335 4.77754 9.76356 3.74047 11.8758 3.32032C13.988 2.90017 16.1774 3.11581 18.1671 3.93997C20.1568 4.76412 21.8574 6.15978 23.0539 7.95044C24.2504 9.74111 24.889 11.8464 24.889 14C24.889 16.8879 23.7418 19.6575 21.6997 21.6996C19.6577 23.7417 16.888 24.8889 14.0001 24.8889Z"
              fill="#565656"/>
    </g>
    <defs>
        <clipPath id="clip0_429_9">
            <rect width="28" height="28" fill="white"/>
        </clipPath>
    </defs>
</svg>
