<svg width="28" height="28" viewBox="0 0 28 28" fill="none" xmlns="http://www.w3.org/2000/svg">
    <g clip-path="url(#clip0_429_45)">
        <path d="M14.0001 1.55554C11.5388 1.55554 9.13283 2.2854 7.08635 3.65281C5.03987 5.02022 3.44484 6.96378 2.50295 9.2377C1.56106 11.5116 1.31461 14.0138 1.79479 16.4278C2.27496 18.8418 3.46018 21.0592 5.20056 22.7995C6.94095 24.5399 9.15834 25.7251 11.5723 26.2053C13.9863 26.6855 16.4885 26.439 18.7624 25.4972C21.0363 24.5553 22.9799 22.9602 24.3473 20.9137C25.7147 18.8673 26.4446 16.4613 26.4446 14C26.4446 10.6995 25.1335 7.53422 22.7997 5.20044C20.4659 2.86665 17.3006 1.55554 14.0001 1.55554V1.55554ZM14.0001 24.8889C11.8465 24.8889 9.74124 24.2503 7.95057 23.0538C6.1599 21.8573 4.76425 20.1567 3.94009 18.167C3.11594 16.1773 2.9003 13.9879 3.32045 11.8757C3.7406 9.76343 4.77767 7.82322 6.30051 6.30038C7.82335 4.77754 9.76356 3.74047 11.8758 3.32032C13.988 2.90017 16.1774 3.11581 18.1671 3.93997C20.1568 4.76412 21.8574 6.15978 23.0539 7.95044C24.2504 9.74111 24.889 11.8464 24.889 14C24.889 16.8879 23.7418 19.6575 21.6997 21.6996C19.6577 23.7417 16.888 24.8889 14.0001 24.8889Z"
              fill="#565656"/>
        <path d="M19.1429 14.7143H8.85714C8.62981 14.7143 8.4118 14.624 8.25105 14.4632C8.09031 14.3025 8 14.0845 8 13.8571C8 13.6298 8.09031 13.4118 8.25105 13.2511C8.4118 13.0903 8.62981 13 8.85714 13H19.1429C19.3702 13 19.5882 13.0903 19.7489 13.2511C19.9097 13.4118 20 13.6298 20 13.8571C20 14.0845 19.9097 14.3025 19.7489 14.4632C19.5882 14.624 19.3702 14.7143 19.1429 14.7143Z"
              fill="#565656"/>
    </g>
    <defs>
        <clipPath id="clip0_429_45">
            <rect width="28" height="28" fill="white"/>
        </clipPath>
    </defs>
</svg>
