<svg width="32" height="32" viewBox="0 0 32 32" fill="none" xmlns="http://www.w3.org/2000/svg">
    <g clip-path="url(#clip0_417_356)">
        <path d="M23.4841 20.688C25.4207 18.0454 26.2881 14.769 25.9127 11.5143C25.5373 8.2596 23.9469 5.26666 21.4596 3.13425C18.9723 1.00183 15.7716 -0.112806 12.4978 0.0133408C9.22393 0.139487 6.11846 1.49711 3.80262 3.8146C1.48679 6.13209 0.131388 9.23854 0.00758408 12.5125C-0.11622 15.7864 1.00071 18.9863 3.1349 21.4721C5.2691 23.9578 8.26318 25.5461 11.5181 25.9192C14.7731 26.2922 18.0488 25.4225 20.6901 23.484H20.6881C20.7481 23.564 20.8121 23.64 20.8841 23.714L28.5841 31.414C28.9591 31.7893 29.4678 32.0002 29.9984 32.0004C30.5289 32.0006 31.0378 31.79 31.4131 31.415C31.7884 31.04 31.9993 30.5312 31.9995 30.0007C31.9997 29.4702 31.7891 28.9613 31.4141 28.586L23.7141 20.886C23.6426 20.8136 23.5657 20.7467 23.4841 20.686V20.688ZM24.0001 13C24.0001 14.4445 23.7156 15.8749 23.1628 17.2095C22.61 18.5441 21.7997 19.7567 20.7783 20.7782C19.7568 21.7996 18.5442 22.6099 17.2096 23.1627C15.875 23.7155 14.4446 24 13.0001 24C11.5555 24 10.1252 23.7155 8.79057 23.1627C7.45599 22.6099 6.24336 21.7996 5.22191 20.7782C4.20047 19.7567 3.39021 18.5441 2.83741 17.2095C2.28461 15.8749 2.00009 14.4445 2.00009 13C2.00009 10.0826 3.15901 7.28471 5.22191 5.22181C7.28481 3.15891 10.0827 1.99999 13.0001 1.99999C15.9175 1.99999 18.7154 3.15891 20.7783 5.22181C22.8412 7.28471 24.0001 10.0826 24.0001 13Z"
              fill="#333333"/>
    </g>
    <defs>
        <clipPath id="clip0_417_356">
            <rect width="32" height="32" fill="white"/>
        </clipPath>
    </defs>
</svg>
