<svg width="48" height="48" viewBox="0 0 48 48" fill="none" xmlns="http://www.w3.org/2000/svg">
    <path d="M37.5 21C37.5 21.3978 37.342 21.7794 37.0607 22.0607C36.7794 22.342 36.3978 22.5 36 22.5H28.5C28.1022 22.5 27.7206 22.342 27.4393 22.0607C27.158 21.7794 27 21.3978 27 21C27 20.6022 27.158 20.2206 27.4393 19.9393C27.7206 19.658 28.1022 19.5 28.5 19.5H36C36.3978 19.5 36.7794 19.658 37.0607 19.9393C37.342 20.2206 37.5 20.6022 37.5 21ZM36 25.5H28.5C28.1022 25.5 27.7206 25.658 27.4393 25.9393C27.158 26.2206 27 26.6022 27 27C27 27.3978 27.158 27.7794 27.4393 28.0607C27.7206 28.342 28.1022 28.5 28.5 28.5H36C36.3978 28.5 36.7794 28.342 37.0607 28.0607C37.342 27.7794 37.5 27.3978 37.5 27C37.5 26.6022 37.342 26.2206 37.0607 25.9393C36.7794 25.658 36.3978 25.5 36 25.5ZM24.525 31.125C24.5757 31.3146 24.5882 31.5124 24.5617 31.7069C24.5353 31.9014 24.4705 32.0887 24.3711 32.2579C24.2716 32.4272 24.1395 32.5749 23.9825 32.6927C23.8254 32.8104 23.6466 32.8957 23.4562 32.9437C23.2654 32.9947 23.0664 33.0074 22.8706 32.9812C22.6749 32.955 22.4862 32.8903 22.3155 32.791C22.1448 32.6917 21.9953 32.5597 21.8758 32.4025C21.7562 32.2453 21.6689 32.066 21.6188 31.875C21.3645 30.9153 20.8001 30.0666 20.0133 29.461C19.2265 28.8555 18.2616 28.5272 17.2687 28.5272C16.2759 28.5272 15.311 28.8555 14.5242 29.461C13.7374 30.0666 13.173 30.9153 12.9188 31.875C12.8323 32.1971 12.6422 32.4817 12.3779 32.6851C12.1136 32.8884 11.7897 32.9991 11.4562 33L11.0812 32.9437C10.8909 32.8957 10.7121 32.8104 10.555 32.6927C10.398 32.5749 10.2659 32.4272 10.1664 32.2579C10.067 32.0887 10.0022 31.9014 9.97575 31.7069C9.94933 31.5124 9.96182 31.3146 10.0125 31.125C10.4691 29.3519 11.5555 27.8057 13.0687 26.775C12.2176 25.9407 11.6343 24.8719 11.393 23.7048C11.1517 22.5377 11.2635 21.3251 11.7141 20.2218C12.1646 19.1184 12.9336 18.1743 13.9229 17.5097C14.9122 16.8451 16.077 16.4901 17.2687 16.4901C18.4605 16.4901 19.6253 16.8451 20.6146 17.5097C21.6039 18.1743 22.3729 19.1184 22.8234 20.2218C23.274 21.3251 23.3858 22.5377 23.1445 23.7048C22.9032 24.8719 22.3199 25.9407 21.4688 26.775C22.982 27.8057 24.0684 29.3519 24.525 31.125ZM17.2687 25.5C17.8621 25.5 18.4421 25.3241 18.9355 24.9944C19.4288 24.6648 19.8133 24.1962 20.0404 23.6481C20.2675 23.0999 20.3269 22.4967 20.2111 21.9147C20.0954 21.3328 19.8096 20.7982 19.3901 20.3787C18.9705 19.9591 18.436 19.6734 17.854 19.5576C17.2721 19.4419 16.6689 19.5013 16.1207 19.7284C15.5725 19.9554 15.104 20.3399 14.7743 20.8333C14.4447 21.3266 14.2688 21.9067 14.2687 22.5C14.2687 23.2956 14.5848 24.0587 15.1474 24.6213C15.71 25.1839 16.4731 25.5 17.2687 25.5ZM43.5 10.5V37.5C43.5 38.2956 43.1839 39.0587 42.6213 39.6213C42.0587 40.1839 41.2957 40.5 40.5 40.5H7.5C6.70435 40.5 5.94129 40.1839 5.37868 39.6213C4.81607 39.0587 4.5 38.2956 4.5 37.5V10.5C4.5 9.70435 4.81607 8.94129 5.37868 8.37868C5.94129 7.81607 6.70435 7.5 7.5 7.5H40.5C41.2957 7.5 42.0587 7.81607 42.6213 8.37868C43.1839 8.94129 43.5 9.70435 43.5 10.5ZM40.5 37.5V10.5H7.5V37.5H40.5Z"
          fill="#565656"/>
</svg>
