<svg width="20" height="20" viewBox="0 0 20 20" fill="none" xmlns="http://www.w3.org/2000/svg">
    <path d="M6.74984 9.75C7.62429 10.6245 9.04205 10.6245 9.9165 9.75L13.2498 6.41667C13.4026 6.26389 13.5971 6.1875 13.8332 6.1875C14.0693 6.1875 14.2637 6.26389 14.4165 6.41667C14.5693 6.56944 14.6457 6.76389 14.6457 7C14.6457 7.23611 14.5693 7.43056 14.4165 7.58333L8.9165 13.0833C8.74984 13.25 8.55539 13.3333 8.33317 13.3333C8.11095 13.3333 7.9165 13.25 7.74984 13.0833L5.58317 10.9167C5.43039 10.7639 5.354 10.5694 5.354 10.3333C5.354 10.0972 5.43039 9.90278 5.58317 9.75C5.73595 9.59722 5.93039 9.52083 6.1665 9.52083C6.40261 9.52083 6.59706 9.59722 6.74984 9.75Z"
          fill="#FAFAFA"/>
</svg>
