<svg width="48" height="48" viewBox="0 0 48 48" fill="none" xmlns="http://www.w3.org/2000/svg">
    <path d="M40.5 7.5H7.50003C6.70438 7.5 5.94132 7.81607 5.37871 8.37868C4.8161 8.94129 4.50003 9.70435 4.50003 10.5V40.5C4.4985 40.756 4.56333 41.008 4.6882 41.2314C4.81307 41.4549 4.99372 41.6422 5.21253 41.775C5.42957 41.9114 5.67797 41.99 5.934 42.0031C6.19003 42.0162 6.44516 41.9635 6.67503 41.85L12 39.1687L17.325 41.85C17.5356 41.9514 17.7663 42.004 18 42.004C18.2337 42.004 18.4644 41.9514 18.675 41.85L24 39.1687L29.325 41.85C29.5363 41.9488 29.7668 42 30 42C30.2333 42 30.4637 41.9488 30.675 41.85L36 39.1687L41.325 41.85C41.5549 41.9635 41.81 42.0162 42.0661 42.0031C42.3221 41.99 42.5705 41.9114 42.7875 41.775C43.0063 41.6422 43.187 41.4549 43.3119 41.2314C43.4367 41.008 43.5016 40.756 43.5 40.5V10.5C43.5 9.70435 43.184 8.94129 42.6213 8.37868C42.0587 7.81607 41.2957 7.5 40.5 7.5ZM40.5 38.0813L36.675 36.15C36.4644 36.0486 36.2337 35.996 36 35.996C35.7663 35.996 35.5356 36.0486 35.325 36.15L30 38.8313L24.675 36.15C24.4637 36.0512 24.2333 36 24 36C23.7668 36 23.5363 36.0512 23.325 36.15L18 38.8313L12.675 36.15C12.4644 36.0486 12.2337 35.996 12 35.996C11.7663 35.996 11.5356 36.0486 11.325 36.15L7.50003 38.0813V10.5H40.5V38.0813ZM25.5 21C25.5 20.6022 25.6581 20.2206 25.9394 19.9393C26.2207 19.658 26.6022 19.5 27 19.5H36C36.3979 19.5 36.7794 19.658 37.0607 19.9393C37.342 20.2206 37.5 20.6022 37.5 21C37.5 21.3978 37.342 21.7794 37.0607 22.0607C36.7794 22.342 36.3979 22.5 36 22.5H27C26.6022 22.5 26.2207 22.342 25.9394 22.0607C25.6581 21.7794 25.5 21.3978 25.5 21ZM25.5 27C25.5 26.6022 25.6581 26.2206 25.9394 25.9393C26.2207 25.658 26.6022 25.5 27 25.5H36C36.3979 25.5 36.7794 25.658 37.0607 25.9393C37.342 26.2206 37.5 26.6022 37.5 27C37.5 27.3978 37.342 27.7794 37.0607 28.0607C36.7794 28.342 36.3979 28.5 36 28.5H27C26.6022 28.5 26.2207 28.342 25.9394 28.0607C25.6581 27.7794 25.5 27.3978 25.5 27ZM12 31.5H21C21.3979 31.5 21.7794 31.342 22.0607 31.0607C22.342 30.7794 22.5 30.3978 22.5 30V18C22.5 17.6022 22.342 17.2206 22.0607 16.9393C21.7794 16.658 21.3979 16.5 21 16.5H12C11.6022 16.5 11.2207 16.658 10.9394 16.9393C10.6581 17.2206 10.5 17.6022 10.5 18V30C10.5 30.3978 10.6581 30.7794 10.9394 31.0607C11.2207 31.342 11.6022 31.5 12 31.5ZM13.5 19.5H19.5V28.5H13.5V19.5Z"
          fill="#565656"/>
</svg>
