<svg width="48" height="48" viewBox="0 0 48 48" fill="none" xmlns="http://www.w3.org/2000/svg">
    <path d="M46.1252 18.5062L35.6252 6.50625C35.4843 6.34693 35.3111 6.2194 35.1171 6.13212C34.9232 6.04484 34.7129 5.9998 34.5002 6H13.5002C13.2875 5.9998 13.0772 6.04484 12.8832 6.13212C12.6893 6.2194 12.5161 6.34693 12.3752 6.50625L1.87518 18.5062C1.63123 18.7893 1.50018 19.1523 1.5071 19.5259C1.51401 19.8995 1.65841 20.2574 1.91268 20.5312L22.9127 43.0312C23.0528 43.1788 23.2215 43.2962 23.4084 43.3765C23.5954 43.4567 23.7967 43.4981 24.0002 43.4981C24.2036 43.4981 24.405 43.4567 24.5919 43.3765C24.7789 43.2962 24.9475 43.1788 25.0877 43.0312L46.0877 20.5312C46.3419 20.2574 46.4863 19.8995 46.4933 19.5259C46.5002 19.1523 46.3691 18.7893 46.1252 18.5062ZM41.7002 18H33.9377L27.0377 9H33.8252L41.7002 18ZM13.7814 21L19.5189 34.9875L6.45018 21H13.7814ZM30.9752 21L24.0002 38.0437L17.0252 21H30.9752ZM17.8314 18L24.0002 9.95625L30.1689 18H17.8314ZM34.2189 21H41.5502L28.4814 34.9875L34.2189 21ZM14.1752 9H20.9627L14.0627 18H6.30018L14.1752 9Z"
          fill="#565656"/>
</svg>
