<svg width="48" height="48" viewBox="0 0 48 48" fill="none" xmlns="http://www.w3.org/2000/svg">
    <path d="M12.9564 17.6437L5.34391 24L12.9564 30.3562C13.1091 30.4797 13.2356 30.6323 13.3288 30.8052C13.4219 30.978 13.4798 31.1677 13.499 31.3631C13.5182 31.5585 13.4983 31.7558 13.4406 31.9434C13.3828 32.1311 13.2884 32.3054 13.1627 32.4562C13.0203 32.6262 12.8425 32.763 12.6417 32.8569C12.4408 32.9509 12.2219 32.9997 12.0002 33C11.6487 33.0016 11.3087 32.8749 11.0439 32.6437L2.04391 25.1437C1.87506 25.0048 1.73906 24.8302 1.64569 24.6324C1.55233 24.4347 1.50391 24.2187 1.50391 24C1.50391 23.7813 1.55233 23.5653 1.64569 23.3676C1.73906 23.1698 1.87506 22.9952 2.04391 22.8562L11.0439 15.3562C11.1898 15.2039 11.3662 15.084 11.5616 15.0045C11.757 14.925 11.967 14.8875 12.1778 14.8946C12.3886 14.9017 12.5956 14.9533 12.7852 15.0458C12.9748 15.1383 13.1427 15.2698 13.278 15.4316C13.4133 15.5935 13.513 15.7821 13.5704 15.985C13.6279 16.188 13.642 16.4008 13.6116 16.6096C13.5813 16.8183 13.5072 17.0183 13.3943 17.1965C13.2814 17.3747 13.1322 17.5271 12.9564 17.6437ZM45.9564 22.8562L36.9564 15.3562C36.6488 15.1522 36.2767 15.0687 35.9114 15.1218C35.5461 15.1749 35.2132 15.3609 34.9764 15.6441C34.7396 15.9273 34.6156 16.2879 34.6281 16.6568C34.6405 17.0258 34.7886 17.3771 35.0439 17.6437L42.6564 24L35.0439 30.3562C34.8106 30.5542 34.6434 30.8187 34.5648 31.1143C34.4861 31.41 34.4997 31.7226 34.6038 32.0103C34.7078 32.298 34.8973 32.5469 35.1469 32.7239C35.3965 32.9008 35.6942 32.9971 36.0002 33C36.3517 33.0016 36.6917 32.8749 36.9564 32.6437L45.9564 25.1437C46.1253 25.0048 46.2613 24.8302 46.3546 24.6324C46.448 24.4347 46.4964 24.2187 46.4964 24C46.4964 23.7813 46.448 23.5653 46.3546 23.3676C46.2613 23.1698 46.1253 22.9952 45.9564 22.8562ZM30.5064 6.09375C30.3219 6.02542 30.1256 5.99455 29.929 6.00293C29.7324 6.01132 29.5394 6.05879 29.3614 6.14257C29.1833 6.22636 29.0238 6.34479 28.892 6.49093C28.7602 6.63707 28.6589 6.80801 28.5939 6.99375L16.5939 39.9937C16.5256 40.1783 16.4947 40.3746 16.5031 40.5712C16.5115 40.7678 16.559 40.9607 16.6427 41.1388C16.7265 41.3168 16.845 41.4764 16.9911 41.6082C17.1372 41.7399 17.3082 41.8413 17.4939 41.9062C17.6566 41.9644 17.8275 41.9961 18.0002 42C18.3089 42.0016 18.6104 41.9066 18.8625 41.7285C19.1147 41.5503 19.3048 41.2978 19.4064 41.0062L31.4064 8.00625C31.4747 7.82171 31.5056 7.62541 31.4972 7.42881C31.4888 7.23222 31.4414 7.03926 31.3576 6.86121C31.2738 6.68316 31.1554 6.52359 31.0092 6.39182C30.8631 6.26005 30.6922 6.15872 30.5064 6.09375Z"
          fill="#333333"/>
</svg>
