<svg width="48" height="48" viewBox="0 0 48 48" fill="none" xmlns="http://www.w3.org/2000/svg">
    <path d="M41.9998 12.5C41.9998 10.7761 41.315 9.12279 40.096 7.90381C38.877 6.68482 37.2237 6 35.4998 6H12.4998C10.7759 6 9.12261 6.68482 7.90362 7.90381C6.68463 9.12279 5.99981 10.7761 5.99981 12.5V37.066C5.99981 39.672 9.13981 40.99 10.9998 39.162L19.0598 31.242C19.0735 31.2283 19.0868 31.2143 19.0998 31.2L22.9498 27.43L23.1158 27.288C23.4024 27.0792 23.7538 26.9787 24.1074 27.0043C24.4611 27.03 24.7943 27.1801 25.0478 27.428L29.2078 31.502L31.3278 29.382L27.1478 25.286L26.8898 25.054C26.0339 24.336 24.9415 23.9621 23.8251 24.0049C22.7087 24.0478 21.6482 24.5045 20.8498 25.286L11.9458 34.006H11.9658L8.99981 36.92V12.5C8.99981 10.568 10.5678 9 12.4998 9H35.4998C37.4338 9 38.9998 10.568 38.9998 12.5V22.464C39.9598 22.084 40.9878 21.938 41.9998 22.024V12.5ZM35.0078 17.504C35.0078 16.3092 34.5332 15.1633 33.6883 14.3185C32.8435 13.4736 31.6976 12.999 30.5028 12.999C29.308 12.999 28.1621 13.4736 27.3173 14.3185C26.4724 15.1633 25.9978 16.3092 25.9978 17.504C25.9978 18.6988 26.4724 19.8447 27.3173 20.6895C28.1621 21.5344 29.308 22.009 30.5028 22.009C31.6976 22.009 32.8435 21.5344 33.6883 20.6895C34.5332 19.8447 35.0078 18.6988 35.0078 17.504ZM28.9978 17.504C28.9978 17.1048 29.1564 16.722 29.4386 16.4398C29.7209 16.1576 30.1037 15.999 30.5028 15.999C30.902 15.999 31.2848 16.1576 31.567 16.4398C31.8493 16.722 32.0078 17.1048 32.0078 17.504C32.0078 17.9032 31.8493 18.286 31.567 18.5682C31.2848 18.8504 30.902 19.009 30.5028 19.009C30.1037 19.009 29.7209 18.8504 29.4386 18.5682C29.1564 18.286 28.9978 17.9032 28.9978 17.504ZM26.3938 37.144L38.1978 25.34C38.6222 24.9154 39.1261 24.5786 39.6807 24.3488C40.2353 24.119 40.8298 24.0006 41.4301 24.0006C42.0304 24.0005 42.6249 24.1186 43.1796 24.3483C43.7342 24.5779 44.2382 24.9146 44.6628 25.339C45.0874 25.7634 45.4242 26.2673 45.654 26.8219C45.8838 27.3765 46.0022 27.971 46.0023 28.5713C46.0023 29.1716 45.8842 29.7661 45.6545 30.3208C45.4249 30.8754 45.0882 31.3794 44.6638 31.804L32.8578 43.608C32.17 44.2967 31.308 44.7855 30.3638 45.022L26.7038 45.936C26.6054 45.9617 26.5051 45.9798 26.4038 45.99C25.2238 46.398 20.4458 47.138 18.7498 45.814C17.6018 44.918 17.8298 43.146 18.3138 42.178C18.3938 42.022 18.2738 41.818 18.1038 41.846C16.7838 42.052 15.6178 42.746 14.4498 43.444C12.8838 44.38 11.3098 45.316 9.35181 45.074C7.39381 44.83 6.41581 43.622 5.93181 42.564C5.73381 42.132 6.29181 41.762 6.70781 41.99C7.64581 42.5 8.91981 42.982 9.96981 42.75C10.7198 42.582 11.7778 41.834 12.9618 40.996C15.0938 39.49 17.6358 37.69 19.5458 38.46C21.2258 39.134 22.4658 40.76 21.6058 42.686C21.5018 42.922 21.6058 43.214 21.8598 43.272C22.7058 43.466 23.4158 43.404 24.1258 43.062L24.9818 39.638C25.2178 38.694 25.7058 37.832 26.3938 37.144Z"
          fill="#565656"/>
</svg>
