<svg width="48" height="48" viewBox="0 0 48 48" fill="none" xmlns="http://www.w3.org/2000/svg">
    <path d="M39 7.5H9C7.80805 7.50494 6.66632 7.98063 5.82347 8.82347C4.98063 9.66632 4.50494 10.808 4.5 12V33C4.50494 34.192 4.98063 35.3337 5.82347 36.1765C6.66632 37.0194 7.80805 37.4951 9 37.5H39C40.192 37.4951 41.3337 37.0194 42.1765 36.1765C43.0194 35.3337 43.4951 34.192 43.5 33V12C43.4951 10.808 43.0194 9.66632 42.1765 8.82347C41.3337 7.98063 40.192 7.50494 39 7.5ZM40.5 33C40.5 33.3978 40.342 33.7794 40.0607 34.0607C39.7794 34.342 39.3978 34.5 39 34.5H9C8.60218 34.5 8.22064 34.342 7.93934 34.0607C7.65804 33.7794 7.5 33.3978 7.5 33V12C7.5 11.6022 7.65804 11.2206 7.93934 10.9393C8.22064 10.658 8.60218 10.5 9 10.5H39C39.3978 10.5 39.7794 10.658 40.0607 10.9393C40.342 11.2206 40.5 11.6022 40.5 12V33ZM31.5 42C31.5 42.3978 31.342 42.7794 31.0607 43.0607C30.7794 43.342 30.3978 43.5 30 43.5H18C17.6022 43.5 17.2206 43.342 16.9393 43.0607C16.658 42.7794 16.5 42.3978 16.5 42C16.5 41.6022 16.658 41.2206 16.9393 40.9393C17.2206 40.658 17.6022 40.5 18 40.5H30C30.3978 40.5 30.7794 40.658 31.0607 40.9393C31.342 41.2206 31.5 41.6022 31.5 42ZM30.825 21.2438L21.825 15.2438C21.5972 15.099 21.3357 15.016 21.0662 15.0028C20.7966 14.9897 20.5283 15.0469 20.2875 15.1688C20.0477 15.2982 19.8477 15.4905 19.7089 15.725C19.5702 15.9596 19.498 16.2275 19.5 16.5V28.5C19.498 28.7725 19.5702 29.0404 19.7089 29.275C19.8477 29.5095 20.0477 29.7018 20.2875 29.8313C20.5087 29.942 20.7526 29.9998 21 30C21.2923 29.9969 21.5779 29.9125 21.825 29.7562L30.825 23.7562C31.0339 23.6199 31.2055 23.4337 31.3243 23.2143C31.4431 22.995 31.5053 22.7495 31.5053 22.5C31.5053 22.2505 31.4431 22.005 31.3243 21.7857C31.2055 21.5663 31.0339 21.3801 30.825 21.2438ZM22.5 25.7063V19.2938L27.3 22.5L22.5 25.7063Z"
          fill="#565656"/>
</svg>
