<svg width="48" height="48" viewBox="0 0 48 48" fill="none" xmlns="http://www.w3.org/2000/svg">
    <path d="M33.9858 3.296C33.9365 2.93689 33.7589 2.60778 33.4857 2.36953C33.2125 2.13129 32.8623 2.00002 32.4998 2L32.2958 2.014L32.1018 2.054C31.7852 2.14114 31.5059 2.3298 31.3068 2.59102C31.1077 2.85224 30.9999 3.17157 30.9998 3.5V7.998H27.4978L27.4998 3.5L27.4858 3.296C27.4365 2.93689 27.2589 2.60778 26.9857 2.36953C26.7125 2.13129 26.3623 2.00002 25.9998 2L25.7958 2.014C25.4367 2.0633 25.1076 2.24096 24.8694 2.51414C24.6311 2.78732 24.4998 3.13752 24.4998 3.5L24.4978 7.998H20.9998V3.5L20.9858 3.296C20.934 2.9195 20.7412 2.5767 20.4464 2.33687C20.1516 2.09703 19.7767 1.97804 19.3976 2.00395C19.0184 2.02985 18.6632 2.19872 18.4038 2.47642C18.1443 2.75412 17.9999 3.11995 17.9998 3.5V8.15C16.5592 8.44478 15.2368 9.15612 14.1969 10.1957C13.1569 11.2353 12.4451 12.5575 12.1498 13.998L7.49982 14L7.29582 14.014C6.93672 14.0633 6.60761 14.241 6.36936 14.5141C6.13111 14.7873 5.99984 15.1375 5.99982 15.5L6.01382 15.704C6.06312 16.0631 6.24078 16.3922 6.51396 16.6305C6.78714 16.8687 7.13735 17 7.49982 17L11.9998 16.998V20.498L7.49982 20.5L7.29582 20.514C6.93672 20.5633 6.60761 20.741 6.36936 21.0141C6.13111 21.2873 5.99984 21.6375 5.99982 22L6.01382 22.204C6.05356 22.5049 6.18482 22.7862 6.38982 23.01C7.83491 22.3426 9.40805 21.9979 10.9998 22C12.4118 22 13.7598 22.266 14.9998 22.75V15.5C14.9998 14.3065 15.4739 13.1619 16.3178 12.318C17.1618 11.4741 18.3063 11 19.4998 11H32.4998C33.6933 11 34.8379 11.4741 35.6818 12.318C36.5257 13.1619 36.9998 14.3065 36.9998 15.5V28.5C36.9998 29.6935 36.5257 30.8381 35.6818 31.682C34.8379 32.5259 33.6933 33 32.4998 33H21.9998C21.9998 34.04 21.8558 35.046 21.5858 35.998H24.4978L24.4998 40.5L24.5138 40.704C24.5631 41.0631 24.7408 41.3922 25.014 41.6305C25.2871 41.8687 25.6373 42 25.9998 42L26.2038 41.986C26.5629 41.9367 26.892 41.759 27.1303 41.4859C27.3685 41.2127 27.4998 40.8625 27.4998 40.5L27.4978 35.998H30.9998V40.5L31.0138 40.704C31.0656 41.0805 31.2584 41.4233 31.5532 41.6631C31.848 41.903 32.2229 42.022 32.6021 41.9961C32.9812 41.9701 33.3364 41.8013 33.5959 41.5236C33.8553 41.2459 33.9997 40.88 33.9998 40.5V35.85C35.4407 35.5551 36.7633 34.8434 37.8033 33.8034C38.8433 32.7635 39.5549 31.4409 39.8498 30H44.4998L44.7038 29.986C45.0629 29.9367 45.392 29.759 45.6303 29.4859C45.8685 29.2127 45.9998 28.8625 45.9998 28.5L45.9858 28.296C45.9365 27.9369 45.7589 27.6078 45.4857 27.3695C45.2125 27.1313 44.8623 27 44.4998 27H39.9998V23.5H44.4998L44.7038 23.486C45.0629 23.4367 45.392 23.259 45.6303 22.9859C45.8685 22.7127 45.9998 22.3625 45.9998 22L45.9858 21.796C45.9365 21.4369 45.7589 21.1078 45.4857 20.8695C45.2125 20.6313 44.8623 20.5 44.4998 20.5H39.9998V17H44.4998L44.7038 16.986C45.0803 16.9342 45.4231 16.7414 45.663 16.4466C45.9028 16.1518 46.0218 15.7769 45.9959 15.3978C45.97 15.0186 45.8011 14.6634 45.5234 14.4039C45.2457 14.1445 44.8799 14.0001 44.4998 14H39.8498C39.5549 12.5591 38.8433 11.2365 37.8033 10.1966C36.7633 9.15656 35.4407 8.44492 33.9998 8.15V3.5L33.9858 3.296ZM32.0098 22.01C32.0098 21.2221 31.8546 20.4419 31.5531 19.7139C31.2516 18.9859 30.8096 18.3245 30.2525 17.7674C29.6953 17.2102 29.0339 16.7683 28.3059 16.4667C27.578 16.1652 26.7978 16.01 26.0098 16.01C25.2219 16.01 24.4417 16.1652 23.7137 16.4667C22.9858 16.7683 22.3243 17.2102 21.7672 17.7674C21.21 18.3245 20.7681 18.9859 20.4665 19.7139C20.165 20.4419 20.0098 21.2221 20.0098 22.01C20.0098 23.6013 20.642 25.1274 21.7672 26.2526C22.8924 27.3779 24.4185 28.01 26.0098 28.01C27.6011 28.01 29.1272 27.3779 30.2525 26.2526C31.3777 25.1274 32.0098 23.6013 32.0098 22.01ZM23.0098 22.01C23.0098 21.616 23.0874 21.2259 23.2382 20.8619C23.3889 20.498 23.6099 20.1673 23.8885 19.8887C24.1671 19.6101 24.4978 19.3891 24.8618 19.2384C25.2257 19.0876 25.6159 19.01 26.0098 19.01C26.4038 19.01 26.7939 19.0876 27.1579 19.2384C27.5219 19.3891 27.8526 19.6101 28.1311 19.8887C28.4097 20.1673 28.6307 20.498 28.7815 20.8619C28.9322 21.2259 29.0098 21.616 29.0098 22.01C29.0098 22.8056 28.6938 23.5687 28.1311 24.1313C27.5685 24.6939 26.8055 25.01 26.0098 25.01C25.2142 25.01 24.4511 24.6939 23.8885 24.1313C23.3259 23.5687 23.0098 22.8056 23.0098 22.01ZM10.9998 42C12.8688 42.0027 14.6919 41.4209 16.2138 40.336L21.4398 45.56C21.5771 45.7074 21.7427 45.8256 21.9267 45.9076C22.1107 45.9895 22.3094 46.0336 22.5108 46.0372C22.7122 46.0407 22.9122 46.0037 23.099 45.9282C23.2858 45.8528 23.4555 45.7405 23.5979 45.5981C23.7403 45.4556 23.8526 45.286 23.9281 45.0992C24.0035 44.9124 24.0406 44.7124 24.037 44.511C24.0335 44.3096 23.9894 44.1109 23.9074 43.9269C23.8254 43.7429 23.7072 43.5773 23.5598 43.44L18.3358 38.214C19.5047 36.5695 20.087 34.58 19.9895 32.5648C19.8919 30.5496 19.1201 28.6256 17.7979 27.1018C16.4756 25.5779 14.6797 24.5424 12.6984 24.1617C10.7171 23.781 8.66537 24.077 6.8725 25.0023C5.07963 25.9275 3.64965 27.4284 2.81212 29.2639C1.97459 31.0994 1.77808 33.1631 2.25414 35.1236C2.7302 37.0842 3.85122 38.828 5.43723 40.075C7.02325 41.322 8.98228 42 10.9998 42ZM10.9998 39C9.40852 39 7.8824 38.3679 6.75718 37.2426C5.63196 36.1174 4.99982 34.5913 4.99982 33C4.99982 31.4087 5.63196 29.8826 6.75718 28.7574C7.8824 27.6321 9.40852 27 10.9998 27C12.5911 27 14.1172 27.6321 15.2425 28.7574C16.3677 29.8826 16.9998 31.4087 16.9998 33C16.9998 34.5913 16.3677 36.1174 15.2425 37.2426C14.1172 38.3679 12.5911 39 10.9998 39Z"
          fill="#565656"/>
</svg>
