<svg width="48" height="48" viewBox="0 0 48 48" fill="none" xmlns="http://www.w3.org/2000/svg">
    <g clip-path="url(#clip0_243_34)">
        <path d="M32.24 18.8933V18.8266C32.24 14.8266 29.12 11.8933 24.4 11.8933C22.9551 11.8694 21.5228 12.1641 20.2046 12.7563C18.8865 13.3485 17.715 14.2238 16.7733 15.32C16.6425 15.4412 16.5374 15.5875 16.4641 15.7501C16.3908 15.9127 16.3509 16.0883 16.3467 16.2666C16.3466 16.4312 16.3796 16.594 16.4437 16.7455C16.5079 16.897 16.6018 17.034 16.72 17.1485C16.8382 17.2629 16.9782 17.3524 17.1316 17.4117C17.2851 17.4709 17.4489 17.4987 17.6133 17.4933C17.9656 17.4846 18.3024 17.347 18.56 17.1066C19.2726 16.2716 20.1577 15.6008 21.1543 15.1404C22.151 14.6801 23.2355 14.4411 24.3333 14.44C27.48 14.44 29.44 16.4666 29.44 18.9866V19.0533C29.44 22 27.0933 23.64 23.3867 23.92C23.2366 23.9258 23.0894 23.9632 22.9548 24.0298C22.8202 24.0964 22.7011 24.1907 22.6055 24.3065C22.5098 24.4223 22.4397 24.557 22.3997 24.7018C22.3597 24.8466 22.3507 24.9982 22.3733 25.1466C22.3733 25.1466 22.3733 28.24 22.3733 28.8133C22.4065 29.1433 22.5615 29.4492 22.808 29.6711C23.0546 29.8929 23.375 30.015 23.7067 30.0133H23.8533C24.1834 29.9801 24.4892 29.8252 24.7111 29.5786C24.933 29.3321 25.055 29.0117 25.0533 28.68V25.9333C29 25.3333 32.24 23.2666 32.24 18.8933Z"
              fill="#565656"/>
        <path d="M23.7067 36.6001C24.6272 36.6001 25.3734 35.8539 25.3734 34.9334C25.3734 34.0129 24.6272 33.2667 23.7067 33.2667C22.7862 33.2667 22.04 34.0129 22.04 34.9334C22.04 35.8539 22.7862 36.6001 23.7067 36.6001Z"
              fill="#565656"/>
        <path d="M44.1598 17.08C43.3496 17.4511 42.493 17.7112 41.6132 17.8533C43.0202 21.8592 43.0247 26.2242 41.626 30.233C40.2272 34.2417 37.5082 37.6565 33.9145 39.9175C30.3208 42.1785 26.0657 43.1517 21.8464 42.6776C17.6272 42.2034 13.6942 40.3101 10.6919 37.3079C7.6897 34.3056 5.79637 30.3726 5.32224 26.1534C4.8481 21.9341 5.8213 17.679 8.08232 14.0853C10.3433 10.4916 13.7581 7.77259 17.7668 6.37385C21.7756 4.9751 26.1406 4.97961 30.1465 6.38663C30.2887 5.50686 30.5488 4.65026 30.9198 3.83997C26.3415 2.25691 21.3618 2.27301 16.7938 3.88562C12.2259 5.49824 8.33967 8.61207 5.76996 12.7186C3.20024 16.8251 2.09886 21.6815 2.64569 26.4948C3.19252 31.3081 5.35524 35.7938 8.78064 39.2192C12.206 42.6446 16.6917 44.8073 21.505 45.3541C26.3183 45.9009 31.1747 44.7996 35.2812 42.2298C39.3877 39.6601 42.5016 35.7739 44.1142 31.206C45.7268 26.638 45.7429 21.6583 44.1598 17.08Z"
              fill="#565656"/>
        <path d="M40.0002 14.6667C43.6821 14.6667 46.6668 11.6819 46.6668 8.00004C46.6668 4.31814 43.6821 1.33337 40.0002 1.33337C36.3183 1.33337 33.3335 4.31814 33.3335 8.00004C33.3335 11.6819 36.3183 14.6667 40.0002 14.6667Z"
              fill="#565656"/>
    </g>
    <defs>
        <clipPath id="clip0_243_34">
            <rect width="48" height="48" fill="white"/>
        </clipPath>
    </defs>
</svg>
