<svg width="22" height="22" viewBox="0 0 22 22" fill="none" xmlns="http://www.w3.org/2000/svg">
    <path fill-rule="evenodd" clip-rule="evenodd"
          d="M17.6002 19.0667C17.9892 19.0667 18.3622 18.9122 18.6373 18.6371C18.9124 18.3621 19.0669 17.989 19.0669 17.6V4.40002C19.0669 4.01103 18.9124 3.63798 18.6373 3.36293C18.3622 3.08787 17.9892 2.93335 17.6002 2.93335H4.40021C4.01123 2.93335 3.63817 3.08787 3.36312 3.36293C3.08807 3.63798 2.93354 4.01103 2.93354 4.40002V9.53335C2.93354 9.72784 3.01081 9.91437 3.14833 10.0519C3.28586 10.1894 3.47238 10.2667 3.66688 10.2667C3.86137 10.2667 4.04789 10.1894 4.18542 10.0519C4.32295 9.91437 4.40021 9.72784 4.40021 9.53335V4.40002H17.6002V17.6H12.4669C12.2724 17.6 12.0859 17.6773 11.9483 17.8148C11.8108 17.9523 11.7335 18.1389 11.7335 18.3334C11.7335 18.5278 11.8108 18.7144 11.9483 18.8519C12.0859 18.9894 12.2724 19.0667 12.4669 19.0667H17.6002ZM13.2002 9.53335V13.9333C13.2002 14.1278 13.1229 14.3144 12.9854 14.4519C12.8479 14.5894 12.6614 14.6667 12.4669 14.6667C12.2724 14.6667 12.0859 14.5894 11.9483 14.4519C11.8108 14.3144 11.7335 14.1278 11.7335 13.9333V11.3036L4.18608 18.8526C4.11789 18.9207 4.03695 18.9748 3.94787 19.0117C3.85878 19.0486 3.7633 19.0676 3.66688 19.0676C3.57045 19.0676 3.47497 19.0486 3.38589 19.0117C3.2968 18.9748 3.21586 18.9207 3.14768 18.8526C3.07949 18.7844 3.02541 18.7034 2.98851 18.6143C2.95161 18.5253 2.93262 18.4298 2.93262 18.3334C2.93262 18.2369 2.95161 18.1414 2.98851 18.0524C3.02541 17.9633 3.07949 17.8823 3.14768 17.8141L10.6966 10.2667H8.06688C7.87239 10.2667 7.68586 10.1894 7.54833 10.0519C7.41081 9.91437 7.33354 9.72784 7.33354 9.53335C7.33354 9.33886 7.41081 9.15233 7.54833 9.0148C7.68586 8.87728 7.87239 8.80002 8.06688 8.80002H12.4669C12.5629 8.79963 12.6581 8.81819 12.747 8.85463C12.8358 8.89107 12.9166 8.94468 12.9847 9.01239C13.0528 9.08009 13.1069 9.16057 13.1439 9.24921C13.1809 9.33785 13.2 9.43291 13.2002 9.52895"
          fill="#A9A9A9"/>
</svg>
