<svg width="22" height="22" viewBox="0 0 22 22" fill="none" xmlns="http://www.w3.org/2000/svg">
<path d="M8.01797 3.17108C7.96223 3.137 7.91737 3.08775 7.88862 3.02908C7.85987 2.97042 7.84843 2.90478 7.85565 2.83985C7.86286 2.77492 7.88843 2.7134 7.92935 2.66247C7.97028 2.61155 8.02486 2.57335 8.08672 2.55233C9.33926 2.11903 10.6727 1.97056 11.9898 2.11774C13.307 2.26492 14.5748 2.70404 15.7008 3.40311C15.7427 3.42812 15.7788 3.46175 15.8067 3.50178C15.8345 3.54181 15.8536 3.58732 15.8625 3.63529C15.8715 3.68325 15.8701 3.73256 15.8585 3.77995C15.8469 3.82734 15.8254 3.87173 15.7953 3.91015C14.7961 5.17806 13.5763 6.25522 12.1945 7.08983C11.0762 5.51931 9.65646 4.18717 8.01797 3.17108ZM10.9656 7.73436C9.70741 6.02483 8.05694 4.64256 6.15313 3.7039C6.09691 3.67843 6.03522 3.66745 5.97367 3.67195C5.91213 3.67646 5.85269 3.6963 5.80078 3.72968C4.26038 4.83915 3.10872 6.40576 2.50938 8.20702C2.49519 8.25274 2.49072 8.30092 2.49623 8.34847C2.50175 8.39602 2.51713 8.44189 2.5414 8.48315C2.56567 8.52441 2.59829 8.56014 2.63717 8.58807C2.67605 8.61599 2.72034 8.63548 2.76719 8.6453C3.66522 8.8391 4.58129 8.93704 5.5 8.93749C7.38782 8.93987 9.2533 8.52923 10.9656 7.73436ZM19.8859 10.0289C19.6661 8.03554 18.7823 6.17403 17.3766 4.74374C17.3419 4.70993 17.3005 4.68365 17.2552 4.66653C17.2099 4.64941 17.1615 4.64183 17.1131 4.64425C17.0647 4.64666 17.0174 4.65904 16.974 4.68059C16.9306 4.70215 16.8921 4.73242 16.8609 4.76952C15.7742 6.15636 14.4433 7.33298 12.9336 8.2414C13.4045 9.05854 13.7959 9.91899 14.1023 10.8109C15.3323 10.4784 16.6009 10.3107 17.875 10.3125C18.4206 10.3138 18.9657 10.3453 19.5078 10.407C19.5588 10.4124 19.6103 10.4064 19.6587 10.3893C19.707 10.3722 19.7509 10.3445 19.7872 10.3083C19.8234 10.272 19.8511 10.2281 19.8682 10.1798C19.8853 10.1314 19.8913 10.0799 19.8859 10.0289ZM14.4805 12.1344C14.733 13.2191 14.8598 14.3292 14.8586 15.443C14.858 16.5069 14.7398 17.5675 14.5063 18.6055C14.4909 18.6693 14.4942 18.7362 14.5157 18.7982C14.5372 18.8602 14.576 18.9148 14.6275 18.9555C14.679 18.9961 14.7411 19.0212 14.8064 19.0277C14.8717 19.0342 14.9376 19.0219 14.9961 18.9922C16.3001 18.34 17.425 17.3789 18.2727 16.1926C19.1205 15.0064 19.6654 13.6309 19.8602 12.1859C19.8662 12.1407 19.8631 12.0948 19.8512 12.0508C19.8393 12.0068 19.8187 11.9656 19.7907 11.9296C19.7628 11.8936 19.7279 11.8635 19.6882 11.8412C19.6484 11.8188 19.6047 11.8045 19.5594 11.7992C19.0012 11.7229 18.4384 11.6856 17.875 11.6875C16.7287 11.6861 15.5873 11.8363 14.4805 12.1344ZM12.7875 11.2406C12.5152 10.4263 12.158 9.6428 11.7219 8.90311C9.77973 9.83319 7.65337 10.3149 5.5 10.3125C4.49188 10.3119 3.48661 10.2054 2.50078 9.99452C2.45303 9.98461 2.40371 9.98498 2.35611 9.9956C2.30851 10.0062 2.26372 10.0268 2.2247 10.0561C2.18569 10.0854 2.15334 10.1226 2.12982 10.1653C2.1063 10.208 2.09214 10.2553 2.08828 10.3039C2.07109 10.5331 2.0625 10.7651 2.0625 11C2.06206 12.2237 2.31364 13.4343 2.80155 14.5565C3.28946 15.6787 4.00325 16.6884 4.89844 17.5226C4.93533 17.5581 4.97984 17.5846 5.02855 17.6002C5.07727 17.6157 5.12891 17.6199 5.17951 17.6125C5.23011 17.605 5.27832 17.5861 5.32047 17.5571C5.36262 17.5281 5.39757 17.4899 5.42266 17.4453C7.09945 14.5988 9.69764 12.4099 12.7875 11.2406ZM6.50547 18.3219C6.48254 18.3613 6.46768 18.4049 6.46175 18.4501C6.45583 18.4953 6.45895 18.5412 6.47095 18.5852C6.48295 18.6292 6.50357 18.6703 6.53163 18.7063C6.55969 18.7422 6.59461 18.7722 6.63438 18.7945C7.96624 19.5467 9.47043 19.9405 11 19.9375C11.5216 19.9398 12.0423 19.8937 12.5555 19.8C12.6149 19.7901 12.6704 19.764 12.7159 19.7246C12.7614 19.6852 12.7951 19.6339 12.8133 19.5766C13.259 18.2441 13.4854 16.848 13.4836 15.443C13.4831 14.4746 13.3765 13.5092 13.1656 12.5641C10.3506 13.6622 7.99901 15.6952 6.50547 18.3219Z" fill="#A9A9A9"/>
</svg>
