<svg width="22" height="22" viewBox="0 0 22 22" fill="none" xmlns="http://www.w3.org/2000/svg">
<path d="M11.0002 1.87C5.9585 1.87 1.8335 5.98583 1.8335 11.055C1.8335 15.6383 5.1885 19.4425 9.57016 20.13V13.7133H7.24183V11.055H9.57016V9.02916C9.57016 6.72833 10.936 5.46333 13.0352 5.46333C14.0343 5.46333 15.0793 5.6375 15.0793 5.6375V7.90166H13.9243C12.7877 7.90166 12.4302 8.6075 12.4302 9.33166V11.055H14.9785L14.566 13.7133H12.4302V20.13C14.5902 19.7889 16.5572 18.6867 17.9759 17.0226C19.3947 15.3584 20.1717 13.2418 20.1668 11.055C20.1668 5.98583 16.0418 1.87 11.0002 1.87Z" fill="#A9A9A9"/>
</svg>
