<svg width="22" height="22" viewBox="0 0 22 22" fill="none" xmlns="http://www.w3.org/2000/svg">
<path d="M11.0002 1.83337C9.79638 1.83337 8.60438 2.07048 7.49223 2.53115C6.38008 2.99181 5.36955 3.66702 4.51835 4.51823C2.79927 6.23731 1.8335 8.56889 1.8335 11C1.8335 15.0517 4.46433 18.4892 8.1035 19.7084C8.56183 19.7817 8.7085 19.4975 8.7085 19.25V17.7009C6.16933 18.2509 5.6285 16.4725 5.6285 16.4725C5.20683 15.4092 4.611 15.125 4.611 15.125C3.77683 14.5567 4.67516 14.575 4.67516 14.575C5.59183 14.6392 6.07766 15.5192 6.07766 15.5192C6.87516 16.9125 8.22266 16.5 8.74516 16.28C8.82766 15.6842 9.066 15.2809 9.32266 15.0517C7.28766 14.8225 5.15183 14.0342 5.15183 10.5417C5.15183 9.52421 5.50016 8.70837 6.096 8.05754C6.00433 7.82837 5.6835 6.87504 6.18766 5.63754C6.18766 5.63754 6.95766 5.39004 8.7085 6.57254C9.43266 6.37087 10.221 6.27004 11.0002 6.27004C11.7793 6.27004 12.5677 6.37087 13.2918 6.57254C15.0427 5.39004 15.8127 5.63754 15.8127 5.63754C16.3168 6.87504 15.996 7.82837 15.9043 8.05754C16.5002 8.70837 16.8485 9.52421 16.8485 10.5417C16.8485 14.0434 14.7035 14.8134 12.6593 15.0425C12.9893 15.3267 13.2918 15.8859 13.2918 16.7384V19.25C13.2918 19.4975 13.4385 19.7909 13.906 19.7084C17.5452 18.48 20.1668 15.0517 20.1668 11C20.1668 9.79626 19.9297 8.60426 19.4691 7.49211C19.0084 6.37996 18.3332 5.36943 17.482 4.51823C16.6308 3.66702 15.6202 2.99181 14.5081 2.53115C13.3959 2.07048 12.2039 1.83337 11.0002 1.83337Z" fill="#A9A9A9"/>
</svg>
