<svg width="22" height="22" viewBox="0 0 22 22" fill="none" xmlns="http://www.w3.org/2000/svg">
<path d="M20.5883 5.49996C19.8825 5.82079 19.1216 6.03163 18.3333 6.13246C19.14 5.64663 19.7633 4.87663 20.0566 3.95079C19.2958 4.40913 18.4525 4.72996 17.5633 4.91329C16.8391 4.12496 15.8216 3.66663 14.6666 3.66663C12.5125 3.66663 10.7525 5.42663 10.7525 7.59913C10.7525 7.91079 10.7891 8.21329 10.8533 8.49746C7.58996 8.33246 4.68412 6.76496 2.74995 4.39079C2.41079 4.96829 2.21829 5.64663 2.21829 6.36163C2.21829 7.72746 2.90579 8.93746 3.96912 9.62496C3.31829 9.62496 2.71329 9.44163 2.18162 9.16663V9.19413C2.18162 11.1008 3.53829 12.6958 5.33495 13.0533C4.75812 13.2112 4.15254 13.2331 3.56579 13.1175C3.81476 13.8989 4.30236 14.5827 4.96005 15.0726C5.61774 15.5626 6.41245 15.8342 7.23245 15.8491C5.84245 16.9495 4.11945 17.5443 2.34662 17.5358C2.03495 17.5358 1.72329 17.5175 1.41162 17.4808C3.15329 18.5991 5.22495 19.25 7.44329 19.25C14.6666 19.25 18.6358 13.255 18.6358 8.05746C18.6358 7.88329 18.6358 7.71829 18.6266 7.54413C19.3966 6.99413 20.0566 6.29746 20.5883 5.49996Z" fill="#A9A9A9"/>
</svg>
