<svg width="22" height="22" viewBox="0 0 22 22" fill="none" xmlns="http://www.w3.org/2000/svg">
<path d="M9.16683 13.75L13.9243 11L9.16683 8.25004V13.75ZM19.7635 6.57254C19.8827 7.00337 19.9652 7.58087 20.0202 8.31421C20.0843 9.04754 20.1118 9.68004 20.1118 10.23L20.1668 11C20.1668 13.0075 20.0202 14.4834 19.7635 15.4275C19.5343 16.2525 19.0027 16.7842 18.1777 17.0134C17.7468 17.1325 16.9585 17.215 15.7485 17.27C14.5568 17.3342 13.466 17.3617 12.4577 17.3617L11.0002 17.4167C7.15933 17.4167 4.76683 17.27 3.82266 17.0134C2.99766 16.7842 2.466 16.2525 2.23683 15.4275C2.11766 14.9967 2.03516 14.4192 1.98016 13.6859C1.916 12.9525 1.8885 12.32 1.8885 11.77L1.8335 11C1.8335 8.99254 1.98016 7.51671 2.23683 6.57254C2.466 5.74754 2.99766 5.21587 3.82266 4.98671C4.2535 4.86754 5.04183 4.78504 6.25183 4.73004C7.4435 4.66587 8.53433 4.63837 9.54266 4.63837L11.0002 4.58337C14.841 4.58337 17.2335 4.73004 18.1777 4.98671C19.0027 5.21587 19.5343 5.74754 19.7635 6.57254Z" fill="#A9A9A9"/>
</svg>
